<svg width="26" height="26" viewBox="0 0 26 26" fill="none" xmlns="http://www.w3.org/2000/svg">
<path d="M18.1552 9.31418H7.79502C7.08276 9.31418 6.5 8.73142 6.5 8.01916C6.5 7.3069 7.08276 6.72414 7.79502 6.72414H18.1552C18.8674 6.72414 19.4502 7.3069 19.4502 8.01916C19.4502 8.73142 18.8674 9.31418 18.1552 9.31418Z" fill="white"/>
<path d="M18.1552 14.4943H7.79502C7.08276 14.4943 6.5 13.9115 6.5 13.1992C6.5 12.487 7.08276 11.9042 7.79502 11.9042H18.1552C18.8674 11.9042 19.4502 12.487 19.4502 13.1992C19.4502 13.9115 18.8674 14.4943 18.1552 14.4943Z" fill="white"/>
<path d="M7.79502 19.6743H14.2701C14.9824 19.6743 15.5651 19.0916 15.5651 18.3793C15.5651 17.667 14.9824 17.0843 14.2701 17.0843H7.79502C7.08276 17.0843 6.5 17.667 6.5 18.3793C6.5 19.0916 7.08276 19.6743 7.79502 19.6743Z" fill="white"/>
<path fill-rule="evenodd" clip-rule="evenodd" d="M3.93487 0C1.76762 0 0 1.76762 0 3.93487V22.0651C0 24.2324 1.76762 26 3.93487 26H22.0651C24.2324 26 26 24.2324 26 22.0651V3.93487C26 1.76762 24.2324 0 22.0651 0H3.93487ZM2.68966 3.93487C2.68966 3.25307 3.25307 2.68966 3.93487 2.68966H22.0651C22.7469 2.68966 23.3103 3.25307 23.3103 3.93487V22.0651C23.3103 22.7469 22.7469 23.3103 22.0651 23.3103H3.93487C3.25307 23.3103 2.68966 22.7469 2.68966 22.0651V3.93487Z" fill="white"/>
</svg>
