<svg width="16" height="16" viewBox="0 0 16 16" fill="none" xmlns="http://www.w3.org/2000/svg">
<path d="M11.1723 5.7319H4.79692C4.58587 5.73125 4.38364 5.64717 4.23435 5.49799C4.08505 5.34881 4.00081 5.14665 4 4.9356C4 4.49744 4.35877 4.13867 4.79692 4.13867H11.1723C11.6105 4.13867 11.9692 4.49744 11.9692 4.9356C11.9692 5.37375 11.6105 5.73252 11.1723 5.73252V5.7319ZM11.1723 8.91959H4.79692C4.58587 8.91895 4.38364 8.83486 4.23435 8.68568C4.08505 8.5365 4.00081 8.33434 4 8.12329C4 7.68513 4.35877 7.32636 4.79692 7.32636H11.1723C11.6105 7.32636 11.9692 7.68513 11.9692 8.12329C11.9692 8.56206 11.6105 8.92021 11.1723 8.92021V8.91959ZM4.79692 12.1073H8.78154C9.21969 12.1073 9.57846 11.7491 9.57846 11.311C9.57846 10.8722 9.21969 10.5134 8.78154 10.5134H4.79692C4.35877 10.5134 4 10.8722 4 11.311C4 11.7491 4.35877 12.1073 4.79692 12.1073Z" fill="black"/>
<path fill-rule="evenodd" clip-rule="evenodd" d="M2.42154 0C1.77966 0.00113881 1.16439 0.25663 0.71051 0.71051C0.25663 1.16439 0.00113881 1.77966 0 2.42154V13.5785C0.00113881 14.2203 0.25663 14.8356 0.71051 15.2895C1.16439 15.7434 1.77966 15.9989 2.42154 16H13.5785C14.2203 15.9989 14.8356 15.7434 15.2895 15.2895C15.7434 14.8356 15.9989 14.2203 16 13.5785V2.42154C15.9989 1.77966 15.7434 1.16439 15.2895 0.71051C14.8356 0.25663 14.2203 0.00113881 13.5785 0H2.42154ZM1.65538 2.42154C1.65538 2.00185 2.00185 1.65538 2.42154 1.65538H13.5785C13.9982 1.65538 14.3446 2.00185 14.3446 2.42154V13.5785C14.3446 13.9982 13.9982 14.3446 13.5785 14.3446H2.42154C2.21874 14.3433 2.02462 14.2622 1.88121 14.1188C1.73781 13.9754 1.65668 13.7813 1.65538 13.5785V2.42154Z" fill="black"/>
</svg>
