<svg width="16" height="16" viewBox="0 0 16 16" fill="none" xmlns="http://www.w3.org/2000/svg">
<path d="M14.2222 0H1.77846C1.30724 0.00113682 0.855635 0.188791 0.522372 0.521938C0.18911 0.855085 0.0012999 1.30663 0 1.77785V14.2215C0 15.2 0.8 16 1.77785 16H14.2215C15.2 16 16 15.2 16 14.2222V1.77846C16 0.8 15.2 0 14.2222 0ZM8.88862 12.4443H4.44431C3.95569 12.4443 3.55569 12.0443 3.55569 11.5557C3.55569 11.0665 3.95569 10.6665 4.44431 10.6665H8.88862C9.37785 10.6665 9.77785 11.0665 9.77785 11.5557C9.77785 12.0443 9.37785 12.4443 8.88862 12.4443ZM11.5557 8.88862H4.44431C3.95569 8.88862 3.55569 8.48862 3.55569 8C3.55569 7.51138 3.95569 7.11138 4.44431 7.11138H11.5557C12.0443 7.11138 12.4443 7.51138 12.4443 8C12.4443 8.48862 12.0443 8.88862 11.5557 8.88862ZM11.5557 5.33354H4.44431C3.95569 5.33354 3.55569 4.93354 3.55569 4.44431C3.55569 3.95569 3.95569 3.55569 4.44431 3.55569H11.5557C12.0443 3.55569 12.4443 3.95569 12.4443 4.44431C12.4443 4.93354 12.0443 5.33354 11.5557 5.33354Z" fill="black"/>
</svg>
