<svg width="16" height="17" viewBox="0 0 16 17" fill="none" xmlns="http://www.w3.org/2000/svg">
<path d="M5.33125 0.930472C5.38986 0.908706 5.44355 0.875509 5.48921 0.832811C5.53487 0.790112 5.57158 0.738764 5.59722 0.68175C5.62286 0.624736 5.63691 0.563195 5.63856 0.500703C5.64021 0.438211 5.62941 0.376016 5.60681 0.317731C5.55953 0.199834 5.46776 0.105275 5.35133 0.0544899C5.2349 0.0037044 5.10316 0.000771072 4.98459 0.0463239C4.06202 0.394892 3.21416 0.915752 2.48622 1.58114C1.77696 2.22904 1.20645 3.01405 0.809181 3.88869C0.420512 4.74706 0.218914 5.67829 0.217773 6.62055C0.217773 6.88247 0.433477 7.09462 0.699551 7.09462C0.762275 7.09509 0.824477 7.0832 0.882605 7.05963C0.940733 7.03606 0.993649 7.00127 1.03833 6.95724C1.08301 6.91322 1.11859 6.86083 1.14302 6.80306C1.16746 6.74529 1.18027 6.68327 1.18074 6.62055C1.18074 5.8164 1.35318 5.01877 1.68918 4.27329C2.03374 3.51534 2.52845 2.83516 3.1434 2.27388C3.78094 1.69145 4.52341 1.23555 5.33125 0.930472ZM10.859 0.0463239C10.7404 0.000771072 10.6086 0.0037044 10.4922 0.0544899C10.3758 0.105275 10.284 0.199834 10.2367 0.317731C10.2141 0.376016 10.2033 0.438211 10.205 0.500703C10.2066 0.563195 10.2207 0.624736 10.2463 0.68175C10.272 0.738764 10.3087 0.790112 10.3543 0.832811C10.4 0.875509 10.4537 0.908706 10.5123 0.930472C11.3201 1.23556 12.0626 1.69146 12.7001 2.27388C13.3151 2.83517 13.8098 3.51535 14.1544 4.27329C14.4885 5.01096 14.6619 5.81131 14.6628 6.62114C14.6628 6.88247 14.8779 7.09521 15.144 7.09521C15.2068 7.09576 15.269 7.08393 15.3272 7.06039C15.3854 7.03685 15.4384 7.00208 15.4832 6.95805C15.5279 6.91402 15.5635 6.8616 15.588 6.80379C15.6125 6.74598 15.6253 6.68391 15.6258 6.62114C15.6258 5.68247 15.4243 4.75388 15.0344 3.88869C14.6372 3.01382 14.0667 2.2286 13.3573 1.58055C12.6294 0.91516 11.7815 0.394299 10.859 0.0457313V0.0463239ZM6.52533 2.17669C6.54881 2.23466 6.56053 2.29671 6.5598 2.35925C6.55908 2.42178 6.54593 2.48355 6.52111 2.54095C6.4963 2.59836 6.46031 2.65025 6.41526 2.69363C6.3702 2.737 6.31697 2.77097 6.25866 2.79358C5.73637 3.00028 5.25904 3.30616 4.85303 3.69432C4.45435 4.07579 4.136 4.53316 3.91674 5.03951C3.70056 5.53881 3.58884 6.07705 3.58844 6.62114C3.58844 6.88306 3.37274 7.09521 3.10666 7.09521C3.04394 7.09568 2.98174 7.08379 2.92361 7.06022C2.86548 7.03665 2.81256 7.00186 2.76788 6.95784C2.7232 6.91381 2.68763 6.86142 2.66319 6.80365C2.63876 6.74588 2.62594 6.68386 2.62548 6.62114C2.62548 5.95032 2.76296 5.28662 3.03022 4.66795C3.29986 4.04603 3.69113 3.4843 4.18103 3.01581C4.6771 2.54087 5.26049 2.16656 5.89896 1.91358C6.01693 1.8664 6.14872 1.86748 6.2659 1.91659C6.38308 1.9657 6.47625 2.05891 6.52533 2.1761V2.17669ZM9.31763 2.17669C9.3667 2.05936 9.45998 1.96604 9.57729 1.91692C9.69461 1.86779 9.82655 1.86681 9.94459 1.91418C10.5828 2.16705 11.166 2.54115 11.6619 3.01581C12.1518 3.4843 12.5431 4.04603 12.8127 4.66795C13.0795 5.28458 13.2172 5.94928 13.2175 6.62114C13.2175 6.88306 13.0018 7.09521 12.7357 7.09521C12.673 7.09568 12.6108 7.08379 12.5526 7.06022C12.4945 7.03665 12.4416 7.00186 12.3969 6.95784C12.3522 6.91381 12.3167 6.86142 12.2922 6.80365C12.2678 6.74588 12.255 6.68386 12.2545 6.62114C12.2542 6.07685 12.1425 5.5384 11.9262 5.03892C11.7068 4.533 11.3885 4.07604 10.9899 3.69492C10.5837 3.3067 10.1062 3.00082 9.5837 2.79418C9.52532 2.77157 9.47202 2.73757 9.42692 2.69416C9.38181 2.65074 9.3458 2.59879 9.32098 2.54131C9.29616 2.48384 9.28303 2.422 9.28235 2.3594C9.28167 2.2968 9.29346 2.23469 9.31703 2.17669H9.31763ZM11.1636 10.4137C11.163 10.8202 11.081 11.2224 10.9224 11.5966C10.7638 11.9709 10.5319 12.3096 10.2403 12.5927L10.2361 12.5968C9.71859 13.0993 9.04544 13.4107 8.3274 13.4798C8.03209 13.5089 7.73417 13.4971 7.44207 13.4448C6.81778 13.334 6.24094 13.0389 5.78577 12.5974L5.78163 12.5927C5.49001 12.3096 5.25807 11.9709 5.0995 11.5966C4.94093 11.2224 4.85894 10.8202 4.85837 10.4137V9.64336C4.85823 9.57961 4.84211 9.5169 4.81146 9.461C4.78082 9.40509 4.73663 9.35777 4.68296 9.32336C4.60691 9.27364 4.51622 9.25125 4.42576 9.25986C4.33531 9.26848 4.25048 9.30759 4.18518 9.37077C4.14871 9.4062 4.11969 9.44857 4.09984 9.49538C4.08 9.5422 4.06972 9.59251 4.06963 9.64336V10.4137C4.07039 10.9228 4.17332 11.4265 4.37232 11.895C4.57132 12.3636 4.86234 12.7874 5.22814 13.1414C5.87563 13.7703 6.71786 14.16 7.61629 14.2466V15.8069H5.25185C5.14788 15.8067 5.04794 15.8471 4.97333 15.9195C4.93699 15.955 4.90811 15.9974 4.8884 16.0442C4.86869 16.091 4.85853 16.1413 4.85853 16.1921C4.85853 16.2429 4.86869 16.2932 4.8884 16.34C4.90811 16.3868 4.93699 16.4292 4.97333 16.4647C5.0474 16.537 5.14755 16.5773 5.25185 16.5773H10.7695C10.8734 16.5775 10.9734 16.5371 11.048 16.4647C11.0844 16.4292 11.1133 16.3869 11.1331 16.34C11.1529 16.2932 11.1631 16.2429 11.1631 16.1921C11.1631 16.1413 11.1529 16.091 11.1331 16.0442C11.1133 15.9973 11.0844 15.955 11.048 15.9195C10.9734 15.8471 10.8734 15.8067 10.7695 15.8069H8.40503V14.2466C9.37218 14.1535 10.2717 13.7093 10.9336 12.998C11.5865 12.2959 11.9501 11.3731 11.9517 10.4143V9.64336C11.9516 9.59251 11.9413 9.5422 11.9215 9.49538C11.9016 9.44857 11.8726 9.4062 11.8361 9.37077C11.7617 9.29809 11.6617 9.2574 11.5576 9.2574C11.4535 9.2574 11.3536 9.29809 11.2791 9.37077C11.2426 9.4062 11.2136 9.44857 11.1938 9.49538C11.1739 9.5422 11.1637 9.59251 11.1636 9.64336V10.4137Z" fill="black"/>
<path fill-rule="evenodd" clip-rule="evenodd" d="M5.646 10.414C5.646 11.025 5.8937 11.6111 6.33459 12.0443L6.33874 12.0484C6.78643 12.4838 7.38658 12.7268 8.01103 12.7258C8.63529 12.7267 9.23519 12.4836 9.68274 12.0484L9.68689 12.0443C9.90422 11.832 10.0771 11.5786 10.1953 11.2988C10.3135 11.019 10.3748 10.7184 10.3755 10.4146V6.5622C10.3755 5.94886 10.1266 5.36101 9.68274 4.92783C9.23504 4.49249 8.6349 4.24942 8.01044 4.25049C7.38348 4.25049 6.782 4.49405 6.33933 4.92783C6.12057 5.14021 5.94652 5.39423 5.82745 5.67492C5.70837 5.95561 5.64668 6.25729 5.646 6.5622V10.414ZM7.01726 5.60042C6.88844 5.72535 6.78594 5.87482 6.71582 6.04001C6.64569 6.20519 6.60936 6.38274 6.60896 6.5622V10.414C6.60896 10.7732 6.75533 11.1192 7.01726 11.3752C7.28329 11.6335 7.63966 11.7777 8.01044 11.777C8.38134 11.778 8.73794 11.634 9.00422 11.3758C9.13304 11.2509 9.23553 11.1014 9.30566 10.9362C9.37578 10.7711 9.41211 10.5935 9.41251 10.414V6.5622C9.41251 6.20249 9.26674 5.85701 9.00422 5.60042C8.73804 5.34201 8.38142 5.19783 8.01044 5.19864C7.63966 5.19798 7.28329 5.34215 7.01726 5.60042Z" fill="black"/>
</svg>
