<svg width="27" height="28" viewBox="0 0 27 28" fill="none" xmlns="http://www.w3.org/2000/svg">
<path d="M8.99731 1.57143C9.41585 1.41209 9.62398 0.948826 9.46217 0.536688C9.30036 0.12455 8.82989 -0.0803895 8.41135 0.0789429C6.83828 0.677787 5.40547 1.55682 4.19604 2.66835C2.98649 3.77998 2.0238 5.1027 1.36585 6.56254C0.707831 8.02256 0.368286 9.58954 0.368286 11.1735C0.368286 11.6154 0.732055 11.9736 1.18079 11.9736C1.62952 11.9736 1.99329 11.6154 1.99329 11.1735C1.99329 9.81561 2.28422 8.46954 2.85115 7.21163C3.41816 5.95356 4.25092 4.80671 5.30481 3.83814C6.35881 2.86946 7.61307 2.09838 8.99731 1.57143Z" fill="white"/>
<path d="M18.3252 0.0789428C17.9067 -0.0803895 17.4362 0.12455 17.2744 0.536688C17.1126 0.948826 17.3207 1.41209 17.7393 1.57143C19.1235 2.09838 20.3778 2.86945 21.4318 3.83814C22.4856 4.80671 23.3184 5.95356 23.8854 7.21163C24.4524 8.46954 24.7433 9.81561 24.7433 11.1735C24.7433 11.6154 25.1071 11.9736 25.5558 11.9736C26.0045 11.9736 26.3683 11.6154 26.3683 11.1735C26.3683 9.58954 26.0287 8.02256 25.3707 6.56254C24.7128 5.1027 23.7501 3.77998 22.5405 2.66835C21.3311 1.55682 19.8983 0.677787 18.3252 0.0789428Z" fill="white"/>
<path d="M11.0125 3.67352C11.1804 4.08328 10.9791 4.5495 10.563 4.71484C9.67427 5.06797 8.8681 5.58502 8.19 6.23549C7.51194 6.88591 6.97524 7.65694 6.60948 8.50398C6.24374 9.35097 6.05579 10.258 6.05579 11.1735C6.05579 11.6154 5.69202 11.9736 5.24329 11.9736C4.79455 11.9736 4.43079 11.6154 4.43079 11.1735C4.43079 10.042 4.66315 8.92205 5.11405 7.87785C5.56493 6.8337 6.2252 5.88634 7.05609 5.08931C7.88694 4.29232 8.87215 3.66118 9.95495 3.23095C10.3711 3.06561 10.8445 3.26375 11.0125 3.67352Z" fill="white"/>
<path d="M15.7241 3.67352C15.892 3.26375 16.3655 3.06561 16.7816 3.23095C17.8644 3.66118 18.8496 4.29232 19.6805 5.08931C20.5114 5.88634 21.1716 6.83369 21.6225 7.87785C22.0734 8.92205 22.3058 10.042 22.3058 11.1735C22.3058 11.6154 21.942 11.9736 21.4933 11.9736C21.0446 11.9736 20.6808 11.6154 20.6808 11.1735C20.6808 10.258 20.4928 9.35097 20.1271 8.50398C19.7613 7.65693 19.2246 6.88591 18.5466 6.23549C17.8685 5.58502 17.0623 5.06797 16.1736 4.71484C15.7574 4.5495 15.5562 4.08328 15.7241 3.67352Z" fill="white"/>
<path d="M18.8391 17.574C18.8391 18.8631 18.3495 20.1027 17.471 21.0555C17.4095 21.1222 17.3461 21.1875 17.2808 21.2513L17.2739 21.2581C16.5064 22.0055 15.5298 22.5007 14.4787 22.6891C14.3379 22.7144 14.1958 22.7341 14.0527 22.7482C13.8761 22.7656 13.6979 22.7745 13.5187 22.7745C13.3396 22.7745 13.1614 22.7656 12.9848 22.7482C12.8417 22.7341 12.6996 22.7144 12.5588 22.6891C11.5077 22.5007 10.5311 22.0055 9.76363 21.2581L9.75668 21.2513C9.69141 21.1875 9.62801 21.1222 9.56652 21.0555C8.68798 20.1027 8.19838 18.8631 8.19838 17.5741V16.2739C8.19838 16.1015 8.12831 15.9362 8.00359 15.8143C7.97275 15.7841 7.93919 15.7572 7.90347 15.7339C7.79476 15.6627 7.66609 15.6239 7.53333 15.6239C7.35695 15.6239 7.18779 15.6924 7.06307 15.8143C6.93835 15.9362 6.86829 16.1015 6.86829 16.2739V17.574C6.86827 19.1856 7.48064 20.7396 8.58661 21.9348C8.66346 22.0178 8.74231 22.0987 8.82306 22.1774C9.83452 23.1633 11.1446 23.805 12.5588 24.0066C12.6566 24.0205 12.7549 24.0324 12.8537 24.0421V26.6748H8.86343C8.68704 26.6748 8.51789 26.7433 8.39317 26.8652C8.26845 26.9871 8.19838 27.1524 8.19838 27.3248C8.19838 27.4973 8.26845 27.6626 8.39317 27.7845C8.51789 27.9064 8.68704 27.9749 8.86343 27.9749H18.1741C18.3505 27.9749 18.5196 27.9064 18.6443 27.7845C18.7691 27.6626 18.8391 27.4973 18.8391 27.3248C18.8391 27.1524 18.7691 26.9871 18.6443 26.8652C18.5196 26.7433 18.3505 26.6748 18.1741 26.6748H14.1838V24.0421C14.2826 24.0324 14.3809 24.0205 14.4787 24.0066C15.8929 23.805 17.203 23.1633 18.2144 22.1774C18.2952 22.0987 18.374 22.0178 18.4509 21.9348C19.5569 20.7396 20.1692 19.1856 20.1692 17.574V16.2739C20.1692 16.1015 20.0991 15.9362 19.9744 15.8143C19.8497 15.6924 19.6805 15.6239 19.5042 15.6239C19.3714 15.6239 19.2427 15.6627 19.134 15.7339C19.0983 15.7572 19.0647 15.7841 19.0339 15.8143C18.9092 15.9362 18.8391 16.1015 18.8391 16.2739V17.574Z" fill="white"/>
<path fill-rule="evenodd" clip-rule="evenodd" d="M9.52847 17.574C9.52847 18.6053 9.94628 19.5944 10.6903 20.3252L10.6972 20.332C11.4455 21.0634 12.4605 21.4744 13.5187 21.4744C14.577 21.4744 15.592 21.0634 16.3403 20.332L16.3472 20.3252C17.0912 19.5944 17.509 18.6053 17.509 17.574V11.0735C17.509 10.0391 17.0886 9.047 16.3403 8.31554C15.592 7.58409 14.577 7.17316 13.5187 7.17316C12.4605 7.17316 11.4455 7.58409 10.6972 8.31554C9.94887 9.047 9.52847 10.0391 9.52847 11.0735V17.574ZM11.842 9.45118C11.3997 9.88347 11.1535 10.4673 11.1535 11.0735V17.574C11.1535 18.1803 11.3997 18.7641 11.842 19.1963C12.2847 19.629 12.8876 19.8742 13.5187 19.8742C14.1499 19.8742 14.7528 19.629 15.1955 19.1963C15.6378 18.7641 15.884 18.1803 15.884 17.574V11.0735C15.884 10.4673 15.6378 9.88347 15.1955 9.45118C14.7528 9.01849 14.1499 8.7733 13.5187 8.7733C12.8876 8.7733 12.2847 9.01849 11.842 9.45118Z" fill="white"/>
</svg>
