<svg width="21" height="20" viewBox="0 0 21 20" fill="none" xmlns="http://www.w3.org/2000/svg">
<path d="M0 2.61559C0 1.9219 0.276562 1.25661 0.768845 0.76609C1.26113 0.275571 1.92881 0 2.625 0H18.375C19.0712 0 19.7389 0.275571 20.2312 0.76609C20.7234 1.25661 21 1.9219 21 2.61559V13.078C21 13.7717 20.7234 14.437 20.2312 14.9275C19.7389 15.418 19.0712 15.6936 18.375 15.6936H5.79338C5.44531 15.6936 5.11152 15.8315 4.86544 16.0767L1.12087 19.8079C1.02917 19.8995 0.912255 19.9619 0.784922 19.9873C0.65759 20.0127 0.525567 19.9998 0.405562 19.9504C0.285557 19.901 0.182965 19.8172 0.110771 19.7096C0.0385778 19.6021 2.7582e-05 19.4756 0 19.3462V2.61559ZM6.5625 7.84678C6.5625 7.49993 6.42422 7.16729 6.17808 6.92203C5.93194 6.67677 5.5981 6.53898 5.25 6.53898C4.9019 6.53898 4.56806 6.67677 4.32192 6.92203C4.07578 7.16729 3.9375 7.49993 3.9375 7.84678C3.9375 8.19363 4.07578 8.52627 4.32192 8.77153C4.56806 9.01679 4.9019 9.15458 5.25 9.15458C5.5981 9.15458 5.93194 9.01679 6.17808 8.77153C6.42422 8.52627 6.5625 8.19363 6.5625 7.84678ZM11.8125 7.84678C11.8125 7.49993 11.6742 7.16729 11.4281 6.92203C11.1819 6.67677 10.8481 6.53898 10.5 6.53898C10.1519 6.53898 9.81806 6.67677 9.57192 6.92203C9.32578 7.16729 9.1875 7.49993 9.1875 7.84678C9.1875 8.19363 9.32578 8.52627 9.57192 8.77153C9.81806 9.01679 10.1519 9.15458 10.5 9.15458C10.8481 9.15458 11.1819 9.01679 11.4281 8.77153C11.6742 8.52627 11.8125 8.19363 11.8125 7.84678ZM15.75 9.15458C16.0981 9.15458 16.4319 9.01679 16.6781 8.77153C16.9242 8.52627 17.0625 8.19363 17.0625 7.84678C17.0625 7.49993 16.9242 7.16729 16.6781 6.92203C16.4319 6.67677 16.0981 6.53898 15.75 6.53898C15.4019 6.53898 15.0681 6.67677 14.8219 6.92203C14.5758 7.16729 14.4375 7.49993 14.4375 7.84678C14.4375 8.19363 14.5758 8.52627 14.8219 8.77153C15.0681 9.01679 15.4019 9.15458 15.75 9.15458Z" fill="white"/>
</svg>
