<svg width="312" height="82" viewBox="0 0 312 82" fill="none" xmlns="http://www.w3.org/2000/svg">
<rect width="312" height="81" fill="#808080"/>
<path d="M280 9.5C280.261 8.2041 280.485 7.21606 280.667 6.41113C281.263 3.77368 281.415 3.10181 281 0H65V0.0178223H33.5656C32.8788 3.55493 34.4912 15.5789 35.7163 21.5002C37.2421 28.8745 34.4154 33.5635 31.2917 38.7451C28.6968 43.0496 25.897 47.6938 25.2163 54.5C24.1777 64.887 27.2165 81 27.2165 81H248V80.9822H285.5C285.5 80.9822 279.094 72.9619 275 66.5C269.993 58.5977 266.372 51.4944 267 41C267.46 33.3137 271.834 25.6172 275.399 19.344C277.658 15.3701 279.591 11.9673 280 9.5Z" fill="#6A757A"/>
<path d="M256.982 24.303C258.888 21.4904 260.806 18.6614 262 15.5C262.431 14.3592 262.839 13.3464 263.222 12.3948C264.391 9.49218 265.33 7.1594 266 3.5C266.249 2.14187 266.5 0 266.5 0H43.7168C43.7168 0 43.6429 3.04878 43.7168 5C43.8903 9.58354 45.2184 13.0684 46.5273 16.5031C47.9622 20.2686 49.3743 23.9738 49.2168 29C48.9718 36.8152 44.2983 41.9946 39.3631 47.4639C35.9944 51.1973 32.5037 55.0658 30.2165 60C26.5102 67.9956 27.3942 78.6398 27.6572 81.0178H75.2168V81H239V81.0178H285.5C285.763 78.6398 282.391 73.3686 278 69C274.235 65.2535 266 60 266 60C266 60 251.98 50.7635 251 40.5C250.383 34.041 253.666 29.1969 256.982 24.303Z" fill="#2B5367"/>
</svg>
