<svg width="32" height="33" viewBox="0 0 32 33" fill="none" xmlns="http://www.w3.org/2000/svg">
<path d="M16 7.57031C13.8402 7.613 11.7853 8.52346 10.2858 10.102C8.78637 11.6806 7.96475 13.7984 8.00116 15.9911V19.7508C8.00116 20.3932 8.18881 21.0212 8.54038 21.5553C8.89195 22.0895 9.39165 22.5058 9.97629 22.7516C10.5609 22.9975 11.2042 23.0618 11.8249 22.9365C12.4455 22.8111 13.0156 22.5018 13.4631 22.0475C13.9106 21.5933 14.2153 21.0145 14.3388 20.3844C14.4622 19.7544 14.3988 19.1013 14.1567 18.5078C13.9145 17.9142 13.5044 17.407 12.9783 17.05C12.4521 16.6931 11.8335 16.5026 11.2007 16.5026C10.6368 16.505 10.0841 16.6622 9.60093 16.9574V15.9911C9.56443 14.2291 10.2175 12.5243 11.417 11.2503C12.6164 9.97628 14.2645 9.23697 16 9.19437C17.7355 9.23697 19.3836 9.97628 20.583 11.2503C21.7825 12.5243 22.4356 14.2291 22.3991 15.9911V16.9574C21.9159 16.6622 21.3632 16.505 20.7993 16.5026C20.1665 16.5026 19.5479 16.6931 19.0217 17.05C18.4956 17.407 18.0855 17.9142 17.8433 18.5078C17.6012 19.1013 17.5378 19.7544 17.6612 20.3844C17.7847 21.0145 18.0894 21.5933 18.5369 22.0475C18.9844 22.5018 19.5545 22.8111 20.1751 22.9365C20.7958 23.0618 21.4391 22.9975 22.0237 22.7516C22.6084 22.5058 23.1081 22.0895 23.4596 21.5553C23.8112 21.0212 23.9988 20.3932 23.9988 19.7508V15.9911C24.0353 13.7984 23.2136 11.6806 21.7142 10.102C20.2147 8.52346 18.1598 7.613 16 7.57031V7.57031Z" fill="white"/>
<line x1="21.3137" y1="21.676" x2="9.99995" y2="10.3623" stroke="#F15E54" stroke-width="4" stroke-linecap="round"/>
<circle cx="16" cy="16.5339" r="15" stroke="white" stroke-width="2"/>
</svg>
