<svg width="25" height="22" viewBox="0 0 25 22" fill="none" xmlns="http://www.w3.org/2000/svg">
<path d="M5 1C5 0.447715 4.55229 0 4 0C3.44772 0 3 0.447715 3 1V3H1C0.447715 3 0 3.44772 0 4C0 4.55229 0.447715 5 1 5H3V7C3 7.55229 3.44772 8 4 8C4.55229 8 5 7.55229 5 7V5H7C7.55229 5 8 4.55229 8 4C8 3.44772 7.55229 3 7 3H5V1Z" fill="white"/>
<path d="M18.3726 4.44798C18.3359 4.97525 18.0954 5.43833 17.7364 5.76033L14.3358 8.96359L11.4122 5.31903C11.1013 4.95112 10.9274 4.45843 10.9641 3.93116C11.0009 3.40389 11.2413 2.94155 11.6003 2.61882C11.7821 2.4541 11.9953 2.32776 12.2271 2.24735C12.4589 2.16695 12.7045 2.13413 12.9493 2.15087C12.9493 2.15087 13.8733 2.213 14.7349 3.23492C15.7298 2.34233 16.6535 2.40891 16.6535 2.40891C16.8983 2.42625 17.1371 2.49286 17.3555 2.60477C17.5739 2.71667 17.7675 2.87155 17.9245 3.06011C18.2354 3.42877 18.4093 3.92072 18.3726 4.44798Z" fill="white"/>
<path d="M7.83194 12.3301L9.07814 9.00412C9.20915 8.65513 9.25065 8.27888 9.19886 7.90973C9.14707 7.54057 9.00364 7.19026 8.78166 6.89079L8.10318 5.97544L4.57972 11.908C4.41725 12.1818 4.31518 12.4871 4.28034 12.8035C4.24551 13.1199 4.27872 13.4401 4.37775 13.7426L6.60844 20.5627C6.7312 20.938 6.99802 21.2492 7.3502 21.4277C7.70238 21.6063 8.11108 21.6377 8.48639 21.5149L12.7317 20.1264C12.9193 20.065 13.0749 19.9316 13.1642 19.7555C13.2535 19.5794 13.2692 19.3751 13.2078 19.1874L11.3726 13.5766C11.2966 13.3436 11.1641 13.1331 10.9869 12.9637C10.8098 12.7944 10.5935 12.6715 10.3573 12.6061L9.20936 12.2861C9.14449 12.268 9.07594 12.2679 9.01102 12.2858C8.9461 12.3036 8.88724 12.3388 8.8407 12.3874C8.79417 12.4361 8.7617 12.4964 8.74676 12.5621C8.73182 12.6277 8.73497 12.6962 8.75587 12.7602L9.6966 15.6364L8.98906 15.8678L7.83194 12.3301Z" fill="white"/>
<path d="M20.8082 12.3428L19.6075 9.00017C19.4813 8.64942 19.4449 8.27264 19.5018 7.90423C19.5586 7.53581 19.7068 7.1875 19.9328 6.89108L20.6238 5.98509L24.0659 11.9652C24.2246 12.2412 24.3225 12.5478 24.353 12.8647C24.3835 13.1816 24.3459 13.5013 24.2428 13.8024L21.9192 20.5914C21.7913 20.965 21.5203 21.2725 21.1657 21.4462C20.8111 21.62 20.402 21.6458 20.0284 21.5179L15.8025 20.0715C15.6157 20.0076 15.4619 19.872 15.375 19.6947C15.2882 19.5175 15.2753 19.3129 15.3392 19.1261L17.2509 13.5408C17.3301 13.3089 17.4654 13.1002 17.6449 12.9333C17.8243 12.7665 18.0423 12.6466 18.2793 12.5844L19.4315 12.28C19.4966 12.2629 19.5652 12.2637 19.6298 12.2825C19.6945 12.3012 19.7529 12.3371 19.7987 12.3864C19.8446 12.4357 19.8763 12.4965 19.8903 12.5623C19.9043 12.6282 19.9003 12.6966 19.8785 12.7603L18.8986 15.6234L19.6029 15.8644L20.8082 12.3428Z" fill="white"/>
</svg>
