<svg width="16" height="13" viewBox="0 0 16 13" fill="none" xmlns="http://www.w3.org/2000/svg">
<path d="M4.36397 0C1.96782 0 0 1.95235 0 4.33392C0 5.41097 0.492657 6.47547 1.25 7.49823C2.0031 8.5157 2.99575 9.4598 4 10.2781H4.00184C5.15348 11.2095 6.3749 12.0536 7.65625 12.8023L7.65808 12.8041L8.00183 13L8.23896 12.864C9.5589 12.105 10.8155 11.245 11.9982 10.2908H12C13.0047 9.47591 13.9968 8.53418 14.75 7.51454C15.5074 6.48971 16 5.41964 16 4.33392C16 1.95248 14.033 0 11.636 0C10.1134 0 8.76275 0.761145 8 1.94936L7.86213 1.73357H7.76654C6.98145 0.696838 5.77059 0 4.36397 0ZM4.36397 0.928439C5.57095 0.928439 6.61153 1.52239 7.20404 2.44621L7.34375 2.662L8 3.68836L8.79596 2.44621C9.38849 1.52317 10.4293 0.928439 11.636 0.928439C13.5157 0.928439 15.0588 2.45569 15.0588 4.33392C15.0588 5.13664 14.6753 6.03831 13.989 6.96691C13.306 7.89143 12.3668 8.79068 11.4026 9.57269C10.3299 10.4381 9.18261 11.2066 7.99265 11.9064C6.80692 11.2038 5.66901 10.4252 4.59926 9.56005C3.63493 8.77418 2.69392 7.87321 2.01103 6.95059C1.32461 6.02362 0.941176 5.12488 0.941176 4.33392C0.941176 2.45582 2.4853 0.928439 4.36397 0.928439Z" fill="black"/>
</svg>
