<svg width="18" height="14" viewBox="0 0 18 14" fill="none" xmlns="http://www.w3.org/2000/svg">
<path d="M8.29247 2.36719L8.71509 3.03565L9.13771 2.36719C9.85749 1.22872 11.1276 0.5 12.5787 0.5C14.8495 0.5 16.7151 2.37307 16.7151 4.66667C16.7151 5.68387 16.2493 6.74735 15.4828 7.79932C14.7201 8.84621 13.6923 9.83669 12.6472 10.6974C11.6046 11.556 10.5594 12.2735 9.77353 12.7769C9.38109 13.0282 9.05452 13.2255 8.82681 13.3594C8.78676 13.383 8.74977 13.4046 8.71604 13.4241C8.68215 13.4043 8.64499 13.3825 8.60472 13.3586C8.37695 13.2237 8.0503 13.0251 7.65778 12.7721C6.87177 12.2657 5.82638 11.5445 4.78347 10.6832C3.7381 9.81994 2.71005 8.82804 1.9471 7.78259C1.18016 6.73169 0.715088 5.67333 0.715088 4.66667C0.715088 2.37307 2.58066 0.5 4.85145 0.5C6.30261 0.5 7.57269 1.22872 8.29247 2.36719Z" stroke="white"/>
</svg>
