<svg width="21" height="20" viewBox="0 0 21 20" fill="none" xmlns="http://www.w3.org/2000/svg">
<path d="M6.073 10.194L2.212 6.333C0.692 7.99 0.116 9.65 0.106 9.684L0 10L0.105 10.316C0.127 10.383 2.421 17 10.054 17C10.983 17 11.829 16.898 12.606 16.727L9.86 13.981C8.87128 13.9325 7.93595 13.518 7.23598 12.818C6.53601 12.118 6.12147 11.1827 6.073 10.194ZM10.054 3C8.199 3 6.679 3.404 5.412 3.998L1.707 0.292999L0.293 1.707L18.293 19.707L19.707 18.293L16.409 14.995C19.047 13.042 19.988 10.358 20.002 10.316L20.107 10L20.002 9.684C19.98 9.617 17.687 3 10.054 3ZM11.96 10.546C12.147 9.869 11.988 9.107 11.468 8.586C10.948 8.065 10.185 7.907 9.508 8.094L8 6.586C8.61796 6.20598 9.32855 6.00325 10.054 6C12.26 6 14.054 7.794 14.054 10C14.051 10.7253 13.8479 11.4357 13.467 12.053L11.96 10.546Z" fill="#000000"/>
</svg>
