<svg width="20" height="14" viewBox="0 0 20 14" fill="none" xmlns="http://www.w3.org/2000/svg">
<path d="M9.99999 9.54545C11.4728 9.54545 12.6667 8.40582 12.6667 7C12.6667 5.59418 11.4728 4.45455 9.99999 4.45455C8.52719 4.45455 7.33324 5.59418 7.33324 7C7.33324 8.40582 8.52719 9.54545 9.99999 9.54545Z" fill="white"/>
<path d="M19.9603 6.78364C19.1762 4.84759 17.8149 3.1733 16.0447 1.96769C14.2745 0.762081 12.173 0.0780009 10 0C7.82695 0.0780009 5.72547 0.762081 3.9553 1.96769C2.18512 3.1733 0.823847 4.84759 0.0397175 6.78364C-0.0132392 6.92345 -0.0132392 7.07655 0.0397175 7.21636C0.823847 9.15241 2.18512 10.8267 3.9553 12.0323C5.72547 13.2379 7.82695 13.922 10 14C12.173 13.922 14.2745 13.2379 16.0447 12.0323C17.8149 10.8267 19.1762 9.15241 19.9603 7.21636C20.0132 7.07655 20.0132 6.92345 19.9603 6.78364ZM10 11.1364C9.14292 11.1364 8.30509 10.8938 7.59246 10.4393C6.87983 9.98475 6.3244 9.33874 5.99641 8.58292C5.66842 7.8271 5.5826 6.99541 5.74981 6.19304C5.91702 5.39066 6.32974 4.65363 6.93578 4.07515C7.54183 3.49667 8.31398 3.10272 9.15458 2.94312C9.99519 2.78351 10.8665 2.86543 11.6583 3.1785C12.4502 3.49157 13.127 4.02174 13.6031 4.70196C14.0793 5.38218 14.3335 6.1819 14.3335 7C14.3317 8.09651 13.8746 9.14764 13.0623 9.92299C12.25 10.6983 11.1488 11.1347 10 11.1364Z" fill="white"/>
</svg>
