<svg width="16" height="16" viewBox="0 0 16 16" fill="none" xmlns="http://www.w3.org/2000/svg">
<path d="M8 0C7.65932 0 7.33156 0.120263 7.084 0.336102L0.626667 5.96522C0.226667 6.3132 0 6.79889 0 7.30549V14.1544C0 14.6435 0.210714 15.1127 0.585787 15.4586C0.960859 15.8045 1.46957 15.9988 2 15.9988H4.66667C5.1971 15.9988 5.70581 15.8045 6.08088 15.4586C6.45595 15.1127 6.66667 14.6435 6.66667 14.1544V11.0804C6.66667 10.9173 6.7369 10.7609 6.86193 10.6456C6.98695 10.5303 7.15652 10.4656 7.33333 10.4656H8.66667C8.84348 10.4656 9.01305 10.5303 9.13807 10.6456C9.2631 10.7609 9.33333 10.9173 9.33333 11.0804V14.1544C9.33316 14.3967 9.38476 14.6367 9.48519 14.8606C9.58562 15.0845 9.73291 15.288 9.91865 15.4594C10.1044 15.6308 10.3249 15.7667 10.5677 15.8595C10.8104 15.9523 11.0706 16 11.3333 16H14C14.5304 16 15.0391 15.8057 15.4142 15.4598C15.7893 15.1139 16 14.6448 16 14.1556V7.30672C16 6.80012 15.7747 6.31443 15.3747 5.96645L8.916 0.336102C8.66844 0.120263 8.34068 0 8 0Z" fill="black"/>
</svg>
