<svg width="27" height="26" viewBox="0 0 27 26" fill="none" xmlns="http://www.w3.org/2000/svg">
<path d="M13.005 0C12.4514 0 11.9188 0.195427 11.5165 0.546166V0.54217L1.02334 9.69348C0.373338 10.2589 0.00500488 11.0482 0.00500488 11.8714V23.0008C0.00500488 23.7957 0.347415 24.5581 0.956908 25.1202C1.5664 25.6822 2.39305 25.998 3.255 25.998H7.58834C8.45029 25.998 9.27694 25.6822 9.88644 25.1202C10.4959 24.5581 10.8383 23.7957 10.8383 23.0008V18.0056C10.8383 17.7406 10.9525 17.4865 11.1556 17.2992C11.3588 17.1118 11.6344 17.0065 11.9217 17.0065H14.0883C14.3757 17.0065 14.6512 17.1118 14.8544 17.2992C15.0575 17.4865 15.1717 17.7406 15.1717 18.0056V23.0008C15.1714 23.3946 15.2552 23.7846 15.4184 24.1484C15.5816 24.5123 15.821 24.8429 16.1228 25.1214C16.4246 25.4 16.783 25.6209 17.1775 25.7717C17.5719 25.9224 17.9947 26 18.4217 26H22.755C23.617 26 24.4436 25.6842 25.0531 25.1222C25.6626 24.5601 26.005 23.7977 26.005 23.0028V11.8734C26.005 11.0502 25.6388 10.2609 24.9888 9.69548L14.4935 0.546166C14.0912 0.195427 13.5586 0 13.005 0Z" fill="white"/>
</svg>
