<svg width="16" height="16" viewBox="0 0 16 16" fill="none" xmlns="http://www.w3.org/2000/svg">
<path d="M8 0C7.65754 0 7.33478 0.117536 7.08413 0.336538H7.0829C7.08251 0.336885 7.0821 0.337393 7.08167 0.33774L0.626202 5.96514C0.227201 6.31191 -6.15385e-09 6.80251 0 7.30529V14.155C0 14.6405 0.212281 15.1137 0.585337 15.4579V15.4592C0.961797 15.8058 1.46619 15.9988 2 15.9988H4.66587C5.19968 15.9988 5.70287 15.8058 6.07933 15.4592C6.45366 15.1146 6.66587 14.6397 6.66587 14.1551V11.0806C6.66587 10.9144 6.73611 10.7612 6.86058 10.6467C6.98943 10.5295 7.15753 10.4647 7.33173 10.4652H8.66587C8.84083 10.4652 9.01124 10.5295 9.13702 10.6455H9.13825V10.6467C9.26272 10.7612 9.33296 10.9144 9.33296 11.0806V14.1551C9.33296 14.3959 9.38454 14.6361 9.4844 14.8594C9.58447 15.0832 9.73199 15.2886 9.9183 15.4604C10.1039 15.6316 10.3242 15.7669 10.5673 15.8594C10.8101 15.9522 11.0692 16 11.3329 16H14C14.5338 16 15.037 15.807 15.4135 15.4603V15.4591C15.7865 15.1149 16 14.6417 16 14.1562V7.30286V7.29923C15.9937 6.78246 15.7621 6.29311 15.3666 5.96034L8.91466 0.336538C8.66407 0.118088 8.34284 0 8 0ZM8 1.23077C8.05184 1.23077 8.09434 1.25324 8.10577 1.26322L14.5697 6.89784L14.5733 6.90147C14.6955 7.00426 14.7673 7.15408 14.7693 7.31373V14.1563C14.7693 14.2887 14.7158 14.4294 14.5794 14.5553C14.4426 14.6812 14.2317 14.7692 14 14.7692H11.3329C11.2188 14.7692 11.1078 14.748 11.006 14.7091H11.0048C10.9049 14.6712 10.82 14.6177 10.7524 14.5553C10.6851 14.4933 10.6385 14.4249 10.6081 14.357C10.5776 14.2886 10.5637 14.2219 10.5637 14.155V11.0805C10.5637 10.56 10.3377 10.0776 9.97112 9.74038C9.60952 9.40708 9.14072 9.23437 8.66583 9.23437H7.3341H7.33287C6.85049 9.23333 6.38493 9.41379 6.02879 9.73918L6.02759 9.74041C5.66098 10.0776 5.43504 10.56 5.43504 11.0806V14.1551C5.43504 14.2883 5.38277 14.4273 5.24634 14.5529C5.10957 14.6789 4.89753 14.7681 4.66581 14.7681H2C1.76827 14.768 1.55624 14.6788 1.41947 14.5529C1.28373 14.4272 1.23077 14.2871 1.23077 14.155V7.30529C1.23077 7.16929 1.28767 7.02131 1.43389 6.89423L7.89303 1.26322L7.89426 1.26202C7.90421 1.25326 7.94709 1.23077 8 1.23077Z" fill="black"/>
</svg>
