<svg width="27" height="26" viewBox="0 0 27 26" fill="none" xmlns="http://www.w3.org/2000/svg">
<path d="M1.68061 10.4471L10.5165 2.74117V2.74475L12.1737 1.29991C12.3866 1.11431 12.6832 1 13.005 1C13.3269 1 13.6235 1.11431 13.8363 1.29991L13.8364 1.29996L24.3317 10.4493L24.3325 10.4499C24.7737 10.8338 25.005 11.352 25.005 11.8734V23.0028C25.005 23.5052 24.7894 24.0051 24.3752 24.387C23.9583 24.7715 23.3767 25 22.755 25H18.4217C18.1153 25 17.8136 24.9442 17.5344 24.8376C17.2553 24.7309 17.0067 24.5764 16.801 24.3865C16.5954 24.1968 16.4371 23.9761 16.3309 23.7392C16.2247 23.5026 16.1715 23.2522 16.1717 23.0016V23.0008V18.0056C16.1717 17.4481 15.9308 16.9315 15.5323 16.564C15.1365 16.1991 14.6159 16.0065 14.0883 16.0065H11.9217C11.3941 16.0065 10.8735 16.1991 10.4777 16.564C10.0792 16.9315 9.83834 17.4481 9.83834 18.0056V23.0008C9.83834 23.5032 9.62268 24.0031 9.2085 24.385C8.7916 24.7695 8.21004 24.998 7.58834 24.998H3.255C2.63331 24.998 2.05174 24.7695 1.63484 24.385C1.22066 24.0031 1.005 23.5032 1.005 23.0008V11.8714C1.005 11.3517 1.23709 10.833 1.67968 10.4479L1.68061 10.4471Z" stroke="white" stroke-width="2"/>
</svg>
