<svg width="33" height="29" viewBox="0 0 33 29" fill="none" xmlns="http://www.w3.org/2000/svg">
<path d="M18.5122 23.7748C18.5122 24.4962 17.6113 25.0811 16.5 25.0811C15.3887 25.0811 14.4878 24.4962 14.4878 23.7748L14.4878 5.48649C14.4878 4.76503 15.3887 4.18018 16.5 4.18018C17.6113 4.18018 18.5122 4.76503 18.5122 5.48649L18.5122 23.7748Z" fill="white"/>
<path d="M4.02439 27.6937C4.02439 28.4151 3.1235 29 2.01219 29C0.90089 29 -2.98023e-07 28.4151 -2.98023e-07 27.6937V1.30631C-2.98023e-07 0.584854 0.90089 7.45058e-07 2.01219 7.45058e-07C3.1235 7.45058e-07 4.02439 0.584854 4.02439 1.30631L4.02439 27.6937Z" fill="white"/>
<path d="M25.7561 18.2883C25.7561 19.0097 24.8552 19.5946 23.7439 19.5946C22.6326 19.5946 21.7317 19.0097 21.7317 18.2883V10.7117C21.7317 9.99026 22.6326 9.40541 23.7439 9.40541C24.8552 9.40541 25.7561 9.99026 25.7561 10.7117L25.7561 18.2883Z" fill="white"/>
<path d="M33 21.9459C33 22.6674 32.0991 23.2523 30.9878 23.2523C29.8765 23.2523 28.9756 22.6674 28.9756 21.9459L28.9756 7.05405C28.9756 6.3326 29.8765 5.74775 30.9878 5.74775C32.0991 5.74775 33 6.3326 33 7.05405V21.9459Z" fill="white"/>
<path d="M11.2683 20.1171C11.2683 20.8386 10.3674 21.4234 9.2561 21.4234C8.14479 21.4234 7.2439 20.8386 7.2439 20.1171L7.2439 8.88288C7.2439 8.16143 8.14479 7.57658 9.2561 7.57658C10.3674 7.57658 11.2683 8.16143 11.2683 8.88288L11.2683 20.1171Z" fill="white"/>
</svg>
