<svg width="16" height="14" viewBox="0 0 16 14" fill="none" xmlns="http://www.w3.org/2000/svg">
<path d="M8.97551 11.4776C8.97551 11.8257 8.53915 12.1081 8 12.1081C7.46133 12.1081 7.02449 11.8257 7.02449 11.4776V2.64841C7.02449 2.30034 7.46085 2.01793 8 2.01793C8.53867 2.01793 8.97551 2.30034 8.97551 2.64841V11.4776ZM1.95103 13.3695C1.95103 13.7176 1.51467 14 0.975515 14C0.436849 14 0 13.7176 0 13.3695V0.63048C0 0.28241 0.436364 0 0.975515 0C1.51418 0 1.95103 0.28241 1.95103 0.63048V13.3695ZM12.4878 8.82869C12.4878 9.1772 12.0514 9.4597 11.5122 9.4597C10.9736 9.4597 10.5367 9.1772 10.5367 8.82869V5.17131C10.5367 4.82276 10.9731 4.54034 11.5122 4.54034C12.0509 4.54034 12.4878 4.82276 12.4878 5.17131V8.82869ZM16 10.5946C16 10.9427 15.5636 11.2251 15.0245 11.2251C14.4858 11.2251 14.049 10.9427 14.049 10.5946V3.40538C14.049 3.05731 14.4853 2.7749 15.0245 2.7749C15.5632 2.7749 16 3.05731 16 3.40538V10.5946ZM5.46327 9.7117C5.46327 10.0602 5.02691 10.3421 4.48776 10.3421C3.94909 10.3421 3.51224 10.0602 3.51224 9.7117V4.28834C3.51224 3.93979 3.94861 3.65786 4.48776 3.65786C5.02642 3.65786 5.46327 3.93979 5.46327 4.28834V9.7117Z" fill="black"/>
</svg>
