<svg width="16" height="15" viewBox="0 0 16 15" fill="none" xmlns="http://www.w3.org/2000/svg">
<path d="M7.96964 0C5.82238 0.039639 3.77725 0.92392 2.27754 2.46117C1.53892 3.21827 0.957497 4.11409 0.566785 5.09699C0.176072 6.07989 -0.0161959 7.13041 0.00106754 8.18797V11.8436C0.00106754 12.4681 0.188586 13.0784 0.538307 13.5979C0.888965 14.1173 1.38683 14.5223 1.96907 14.7605C2.55154 14.9988 3.19115 15.061 3.80862 14.9393C4.4261 14.8177 4.99431 14.5175 5.44284 14.076C5.88851 13.6371 6.19252 13.0747 6.31568 12.4615C6.43884 11.8482 6.37551 11.212 6.13384 10.6351C5.89182 10.0563 5.48323 9.5626 4.95998 9.21651C4.43441 8.86882 3.8181 8.6836 3.18794 8.68396C2.62726 8.68677 2.07595 8.8396 1.59497 9.1265V8.18797C1.57749 7.33815 1.72839 6.49327 2.03896 5.70204C2.34953 4.91081 2.81363 4.18887 3.40452 3.57784C4.6044 2.33692 6.24489 1.61874 7.97058 1.5789C9.69594 1.61899 11.3361 2.33715 12.5357 3.57784C13.1266 4.18887 13.5907 4.91081 13.9013 5.70204C14.2118 6.49327 14.3627 7.33815 14.3453 8.18797V9.12744C13.8631 8.83998 13.3127 8.68715 12.7514 8.68489C12.1204 8.68489 11.5044 8.87054 10.9793 9.21745C10.4561 9.5644 10.0473 10.0575 9.80638 10.6341C9.56451 11.2112 9.50107 11.8475 9.62423 12.461C9.7474 13.0745 10.0515 13.637 10.4974 14.076C10.9459 14.5175 11.5141 14.8177 12.1316 14.9393C12.7491 15.061 13.3887 14.9988 13.9712 14.7605C14.552 14.5225 15.0495 14.118 15.401 13.5979C15.7509 13.0797 15.9379 12.4688 15.9382 11.8436V8.18703C15.9554 7.12963 15.763 6.07928 15.3723 5.09656C14.9816 4.11383 14.4002 3.21816 13.6618 2.46117C12.1622 0.92423 10.1175 0.039985 7.97058 0H7.96964Z" fill="black"/>
</svg>
