<svg width="18" height="16" viewBox="0 0 18 16" fill="none" xmlns="http://www.w3.org/2000/svg">
<path d="M8.97528 0C6.68054 0.0442688 4.49718 0.988445 2.90399 2.62548C1.3108 4.26251 0.437826 6.45877 0.476514 8.73263V12.6316C0.476514 13.2978 0.675892 13.949 1.04943 14.503C1.42298 15.0569 1.95391 15.4886 2.57509 15.7436C3.19626 15.9985 3.87979 16.0652 4.53923 15.9353C5.19867 15.8053 5.80441 15.4845 6.27984 15.0134C6.75526 14.5423 7.07904 13.9421 7.21021 13.2887C7.34138 12.6353 7.27406 11.958 7.01676 11.3425C6.75946 10.727 6.32373 10.201 5.76469 9.83084C5.20564 9.46071 4.54838 9.26316 3.87602 9.26316C3.27689 9.26565 2.68959 9.42859 2.17627 9.73474V8.73263C2.13749 6.90541 2.83135 5.13748 4.1058 3.81628C5.38025 2.49508 7.13133 1.72838 8.97528 1.68421C10.8192 1.72838 12.5703 2.49508 13.8448 3.81628C15.1192 5.13748 15.8131 6.90541 15.7743 8.73263V9.73474C15.261 9.42859 14.6737 9.26565 14.0745 9.26316C13.4022 9.26316 12.7449 9.46071 12.1859 9.83084C11.6268 10.201 11.1911 10.727 10.9338 11.3425C10.6765 11.958 10.6092 12.6353 10.7404 13.2887C10.8715 13.9421 11.1953 14.5423 11.6707 15.0134C12.1462 15.4845 12.7519 15.8053 13.4113 15.9353C14.0708 16.0652 14.7543 15.9985 15.3755 15.7436C15.9967 15.4886 16.5276 15.0569 16.9011 14.503C17.2747 13.949 17.474 13.2978 17.474 12.6316V8.73263C17.5127 6.45877 16.6398 4.26251 15.0466 2.62548C13.4534 0.988445 11.27 0.0442688 8.97528 0V0Z" fill="white"/>
</svg>
