<svg width="21" height="16" viewBox="0 0 21 16" fill="none" xmlns="http://www.w3.org/2000/svg">
<path d="M4.6758 0.927076C4.76878 1.01995 4.84253 1.13024 4.89286 1.25164C4.94318 1.37303 4.96909 1.50316 4.96909 1.63458C4.96909 1.76599 4.94318 1.89612 4.89286 2.01752C4.84253 2.13891 4.76878 2.2492 4.6758 2.34208C3.17524 3.84289 2.33225 5.87828 2.33225 8.00058C2.33225 10.1229 3.17524 12.1583 4.6758 13.6591C4.76864 13.752 4.84228 13.8623 4.8925 13.9836C4.94272 14.105 4.96855 14.2351 4.9685 14.3664C4.96846 14.4978 4.94254 14.6278 4.89223 14.7492C4.84192 14.8705 4.76821 14.9807 4.6753 15.0736C4.58239 15.1664 4.4721 15.2401 4.35073 15.2903C4.22937 15.3405 4.09929 15.3663 3.96795 15.3663C3.8366 15.3662 3.70654 15.3403 3.58521 15.29C3.46388 15.2397 3.35364 15.166 3.2608 15.0731C-0.645201 11.1671 -0.645201 4.83308 3.2608 0.927076C3.35367 0.834099 3.46396 0.76034 3.58536 0.710016C3.70676 0.659691 3.83688 0.633789 3.9683 0.633789C4.09971 0.633789 4.22984 0.659691 4.35124 0.710016C4.47264 0.76034 4.58293 0.834099 4.6758 0.927076ZM17.4068 0.927076C21.3128 4.83408 21.3128 11.1671 17.4068 15.0731C17.2182 15.2552 16.9656 15.356 16.7034 15.3537C16.4412 15.3515 16.1904 15.2463 16.005 15.0609C15.8196 14.8755 15.7144 14.6247 15.7121 14.3625C15.7098 14.1003 15.8106 13.8477 15.9928 13.6591C17.4934 12.1583 18.3363 10.1229 18.3363 8.00058C18.3363 5.87828 17.4934 3.84289 15.9928 2.34208C15.8052 2.15457 15.6997 1.9002 15.6996 1.63493C15.6995 1.36966 15.8048 1.11522 15.9923 0.927576C16.1798 0.739935 16.4342 0.634467 16.6994 0.634373C16.9647 0.634279 17.2192 0.739568 17.4068 0.927076ZM7.6428 3.80108C7.83027 3.9886 7.93559 4.24291 7.93559 4.50808C7.93559 4.77324 7.83027 5.02755 7.6428 5.21508C7.27875 5.57909 6.98997 6.01124 6.79295 6.48686C6.59592 6.96249 6.49452 7.47226 6.49452 7.98708C6.49452 8.50189 6.59592 9.01167 6.79295 9.48729C6.98997 9.96291 7.27875 10.3951 7.6428 10.7591C7.73831 10.8513 7.81449 10.9617 7.8669 11.0837C7.91931 11.2057 7.9469 11.3369 7.94805 11.4697C7.9492 11.6025 7.9239 11.7341 7.87362 11.857C7.82334 11.9799 7.74909 12.0916 7.65519 12.1855C7.5613 12.2794 7.44965 12.3536 7.32675 12.4039C7.20386 12.4542 7.07218 12.4795 6.9394 12.4783C6.80662 12.4772 6.6754 12.4496 6.55339 12.3972C6.43139 12.3448 6.32105 12.2686 6.2288 12.1731C5.11863 11.0629 4.49494 9.55712 4.49494 7.98708C4.49494 6.41703 5.11863 4.91128 6.2288 3.80108C6.41633 3.6136 6.67063 3.50829 6.9358 3.50829C7.20096 3.50829 7.45527 3.6136 7.6428 3.80108ZM14.6018 3.80108C15.712 4.91128 16.3357 6.41703 16.3357 7.98708C16.3357 9.55712 15.712 11.0629 14.6018 12.1731C14.509 12.266 14.3987 12.3397 14.2774 12.39C14.1561 12.4403 14.026 12.4662 13.8947 12.4663C13.7633 12.4663 13.6332 12.4405 13.5119 12.3903C13.3905 12.3401 13.2802 12.2664 13.1873 12.1736C13.0944 12.0807 13.0207 11.9705 12.9704 11.8492C12.9201 11.7278 12.8941 11.5978 12.8941 11.4664C12.894 11.3351 12.9199 11.205 12.9701 11.0836C13.0203 10.9623 13.094 10.852 13.1868 10.7591C13.5508 10.3951 13.8396 9.96291 14.0367 9.48729C14.2337 9.01167 14.3351 8.50189 14.3351 7.98708C14.3351 7.47226 14.2337 6.96249 14.0367 6.48686C13.8396 6.01124 13.5508 5.57909 13.1868 5.21508C12.9993 5.02743 12.894 4.77299 12.8941 4.50772C12.8942 4.24245 12.9997 3.98808 13.1873 3.80058C13.3749 3.61307 13.6294 3.50778 13.8947 3.50787C14.1599 3.50797 14.4143 3.61343 14.6018 3.80108ZM10.4148 6.57108C10.6118 6.57108 10.8068 6.60987 10.9888 6.68526C11.1708 6.76064 11.3362 6.87113 11.4755 7.01042C11.6147 7.1497 11.7252 7.31506 11.8006 7.49705C11.876 7.67904 11.9148 7.87409 11.9148 8.07108C11.9148 8.26806 11.876 8.46311 11.8006 8.6451C11.7252 8.82709 11.6147 8.99245 11.4755 9.13174C11.3362 9.27102 11.1708 9.38151 10.9888 9.45689C10.8068 9.53228 10.6118 9.57108 10.4148 9.57108C10.017 9.57108 9.63544 9.41304 9.35414 9.13174C9.07283 8.85043 8.9148 8.4689 8.9148 8.07108C8.9148 7.67325 9.07283 7.29172 9.35414 7.01042C9.63544 6.72911 10.017 6.57108 10.4148 6.57108Z" fill="white"/>
</svg>
