<svg width="16" height="16" viewBox="0 0 16 16" fill="none" xmlns="http://www.w3.org/2000/svg">
<g clip-path="url(#clip0)">
<path d="M3.47473 2.24268C3.54909 2.31953 3.60809 2.41079 3.64834 2.51124C3.68859 2.61169 3.7093 2.71937 3.7093 2.82811C3.7093 2.93685 3.68859 3.04452 3.64834 3.14497C3.60809 3.24542 3.54909 3.33668 3.47473 3.41353C2.27458 4.65539 1.60036 6.33958 1.60036 8.09569C1.60036 9.85179 2.27458 11.536 3.47473 12.7778C3.6247 12.9331 3.70891 13.1436 3.70883 13.3631C3.70876 13.5826 3.62441 13.7931 3.47433 13.9483C3.32426 14.1034 3.12075 14.1906 2.90859 14.1905C2.69643 14.1904 2.49298 14.1031 2.34301 13.9479C-0.781004 10.7158 -0.781004 5.47472 2.34301 2.24268C2.41729 2.16575 2.5055 2.10472 2.6026 2.06307C2.69969 2.02143 2.80377 2 2.90887 2C3.01398 2 3.11805 2.02143 3.21515 2.06307C3.31224 2.10472 3.40045 2.16575 3.47473 2.24268ZM13.657 2.24268C16.781 5.47555 16.781 10.7158 13.657 13.9479C13.5061 14.0986 13.3041 14.182 13.0944 14.1801C12.8847 14.1782 12.6841 14.0912 12.5358 13.9378C12.3875 13.7844 12.3034 13.5768 12.3016 13.3599C12.2998 13.1429 12.3804 12.9339 12.5261 12.7778C13.7262 11.536 14.4004 9.85179 14.4004 8.09569C14.4004 6.33958 13.7262 4.65539 12.5261 3.41353C12.376 3.25838 12.2916 3.0479 12.2916 2.8284C12.2915 2.6089 12.3757 2.39836 12.5257 2.2431C12.6756 2.08783 12.8791 2.00056 13.0912 2.00048C13.3034 2.00041 13.5069 2.08753 13.657 2.24268ZM5.84774 4.62079C5.99768 4.77596 6.08191 4.98639 6.08191 5.2058C6.08191 5.42521 5.99768 5.63564 5.84774 5.79081C5.55657 6.09201 5.32561 6.4496 5.16803 6.84316C5.01045 7.23671 4.92934 7.65853 4.92934 8.08452C4.92934 8.5105 5.01045 8.93232 5.16803 9.32587C5.32561 9.71943 5.55657 10.077 5.84774 10.3782C5.92413 10.4546 5.98506 10.5459 6.02697 10.6468C6.06889 10.7478 6.09095 10.8563 6.09188 10.9662C6.0928 11.0761 6.07256 11.185 6.03235 11.2867C5.99213 11.3884 5.93275 11.4808 5.85765 11.5585C5.78256 11.6362 5.69326 11.6976 5.59496 11.7392C5.49667 11.7808 5.39136 11.8018 5.28516 11.8008C5.17896 11.7999 5.07401 11.777 4.97643 11.7337C4.87885 11.6903 4.7906 11.6273 4.71682 11.5482C3.82891 10.6296 3.33008 9.38366 3.33008 8.08452C3.33008 6.78537 3.82891 5.53944 4.71682 4.62079C4.86681 4.46566 5.0702 4.37852 5.28228 4.37852C5.49436 4.37852 5.69775 4.46566 5.84774 4.62079ZM11.4135 4.62079C12.3015 5.53944 12.8003 6.78537 12.8003 8.08452C12.8003 9.38366 12.3015 10.6296 11.4135 11.5482C11.2636 11.7035 11.0601 11.7908 10.848 11.7909C10.6358 11.7909 10.4323 11.7038 10.2822 11.5487C10.1322 11.3935 10.0478 11.183 10.0477 10.9635C10.0477 10.744 10.1319 10.5335 10.2818 10.3782C10.8695 9.7697 11.1996 8.9447 11.1996 8.08452C11.1996 7.22433 10.8695 6.39933 10.2818 5.79081C10.1319 5.63555 10.0477 5.42501 10.0477 5.20551C10.0478 4.98601 10.1322 4.77553 10.2822 4.62037C10.4323 4.46522 10.6358 4.3781 10.848 4.37818C11.0601 4.37825 11.2636 4.46552 11.4135 4.62079ZM8.06478 6.91284C8.38296 6.91284 8.68811 7.04361 8.9131 7.27637C9.13809 7.50914 9.26448 7.82484 9.26448 8.15402C9.26448 8.4832 9.13809 8.7989 8.9131 9.03167C8.68811 9.26444 8.38296 9.39521 8.06478 9.39521C7.7466 9.39521 7.44146 9.26444 7.21647 9.03167C6.99148 8.7989 6.86508 8.4832 6.86508 8.15402C6.86508 7.82484 6.99148 7.50914 7.21647 7.27637C7.44146 7.04361 7.7466 6.91284 8.06478 6.91284Z" fill="black"/>
</g>
<defs>
<clipPath id="clip0">
<rect width="16" height="16" fill="white"/>
</clipPath>
</defs>
</svg>
