<svg width="138" height="122" viewBox="0 0 138 122" fill="none" xmlns="http://www.w3.org/2000/svg">
<path d="M18.1312 113.536V115H13.8952C13.1032 115 12.4792 114.916 12.0232 114.748C11.5672 114.58 11.2272 114.276 11.0032 113.836C10.7872 113.388 10.6792 112.74 10.6792 111.892C10.6792 111.084 10.7832 110.468 10.9912 110.044C11.1992 109.612 11.5352 109.312 11.9992 109.144C12.4632 108.968 13.1152 108.88 13.9552 108.88C14.4032 108.88 14.9392 108.896 15.5632 108.928C16.1872 108.96 16.6272 108.996 16.8832 109.036V113.536H18.1312ZM12.2872 111.892C12.2872 112.34 12.3432 112.684 12.4552 112.924C12.5752 113.156 12.7552 113.316 12.9952 113.404C13.2352 113.492 13.5632 113.536 13.9792 113.536H15.2752V110.404C14.8752 110.364 14.4552 110.344 14.0152 110.344C13.5752 110.344 13.2312 110.388 12.9832 110.476C12.7432 110.564 12.5672 110.72 12.4552 110.944C12.3432 111.16 12.2872 111.476 12.2872 111.892ZM12.5632 106.384H13.7992V107.884H12.5632V106.384ZM14.3872 106.384H15.6232V107.884H14.3872V106.384ZM23.3288 113.536V115H18.1328V113.536H19.9208V109H21.5288V113.536H23.3288ZM19.1768 115.96H20.4128V117.46H19.1768V115.96ZM21.0008 115.96H22.2368V117.46H21.0008V115.96ZM27.8362 108.892C28.6602 108.892 29.2922 109.012 29.7322 109.252C30.1802 109.492 30.4802 109.832 30.6322 110.272C30.7922 110.712 30.8722 111.288 30.8722 112V115H23.3242V113.536H25.1962C25.0842 112.96 25.0282 112.452 25.0282 112.012C25.0282 111.572 25.0722 111.1 25.1602 110.596C25.2482 110.092 25.3482 109.656 25.4602 109.288C25.6762 109.184 25.9962 109.092 26.4202 109.012C26.8442 108.932 27.3162 108.892 27.8362 108.892ZM26.5882 112.012C26.5882 112.284 26.6042 112.564 26.6362 112.852C26.6762 113.132 26.7162 113.36 26.7562 113.536H29.2642V111.964C29.2642 111.404 29.1522 110.992 28.9282 110.728C28.7122 110.464 28.2922 110.332 27.6682 110.332C27.3642 110.332 27.0602 110.364 26.7562 110.428C26.6442 111.028 26.5882 111.556 26.5882 112.012ZM39.2448 113.536V115H31.9488V113.536H33.4608V108.22H35.0688V113.536H36.6888V106.6H38.2968V113.536H39.2448ZM48.49 108.988C48.578 109.5 48.654 110.02 48.718 110.548C48.79 111.076 48.826 111.448 48.826 111.664V115H46.354C46.09 115 45.834 114.956 45.586 114.868C45.346 114.78 45.15 114.676 44.998 114.556C44.678 114.852 44.278 115 43.798 115H39.25V113.536H41.086V109.6H42.694V113.536H43.246C43.55 113.536 43.782 113.416 43.942 113.176C44.11 112.928 44.194 112.612 44.194 112.228V109.6H45.802V112.228C45.802 112.636 45.762 113 45.682 113.32C45.754 113.376 45.846 113.428 45.958 113.476C46.078 113.516 46.198 113.536 46.318 113.536H47.218V111.892C47.218 111.38 47.21 110.948 47.194 110.596C47.178 110.236 47.142 109.72 47.086 109.048L48.49 108.988ZM50.5108 106.6H52.1188V115H50.5108V106.6ZM63.764 113.536V115H59.528C58.736 115 58.112 114.916 57.656 114.748C57.2 114.58 56.86 114.276 56.636 113.836C56.42 113.388 56.312 112.74 56.312 111.892C56.312 111.084 56.416 110.468 56.624 110.044C56.832 109.612 57.168 109.312 57.632 109.144C58.096 108.968 58.748 108.88 59.588 108.88C60.036 108.88 60.572 108.896 61.196 108.928C61.82 108.96 62.26 108.996 62.516 109.036V113.536H63.764ZM57.92 111.892C57.92 112.34 57.976 112.684 58.088 112.924C58.208 113.156 58.388 113.316 58.628 113.404C58.868 113.492 59.196 113.536 59.612 113.536H60.908V110.404C60.508 110.364 60.088 110.344 59.648 110.344C59.208 110.344 58.864 110.388 58.616 110.476C58.376 110.564 58.2 110.72 58.088 110.944C57.976 111.16 57.92 111.476 57.92 111.892ZM58.196 106.384H59.432V107.884H58.196V106.384ZM60.02 106.384H61.256V107.884H60.02V106.384ZM68.9616 113.536V115H63.7656V113.536H65.5536V109H67.1616V113.536H68.9616ZM64.8096 115.96H66.0456V117.46H64.8096V115.96ZM66.6336 115.96H67.8696V117.46H66.6336V115.96ZM74.153 113.536V115H68.957V113.536H70.745V109H72.353V113.536H74.153ZM70.001 106.384H71.237V107.884H70.001V106.384ZM71.825 106.384H73.061V107.884H71.825V106.384ZM77.5327 109V115H74.1367V113.536H75.9247V109H77.5327ZM75.2167 115.96H76.4527V117.46H75.2167V115.96ZM77.0407 115.96H78.2767V117.46H77.0407V115.96ZM85.8672 115H84.3552C84.1792 116.984 83.3472 117.976 81.8592 117.976C81.4272 117.976 80.7312 117.9 79.7712 117.748V116.296C80.7312 116.44 81.3792 116.512 81.7152 116.512C81.9712 116.512 82.1712 116.468 82.3152 116.38C82.4592 116.292 82.5632 116.14 82.6272 115.924C82.6992 115.708 82.7352 115.4 82.7352 115H81.3432C79.6872 115 78.8592 114.064 78.8592 112.192C78.8592 111.24 78.9632 110.516 79.1712 110.02C79.3872 109.524 79.6872 109.192 80.0712 109.024C80.4632 108.848 80.9752 108.76 81.6072 108.76C82.0712 108.76 82.5632 108.792 83.0832 108.856C83.6032 108.912 84.0392 108.98 84.3912 109.06V113.536H85.8672V115ZM80.4672 112.096C80.4672 112.504 80.5552 112.848 80.7312 113.128C80.9072 113.4 81.2592 113.536 81.7872 113.536H82.7832V110.284C82.4792 110.244 82.1872 110.224 81.9072 110.224C81.5712 110.224 81.3032 110.272 81.1032 110.368C80.9032 110.456 80.7472 110.636 80.6352 110.908C80.5232 111.172 80.4672 111.568 80.4672 112.096ZM92.4192 108.88C93.4272 108.88 94.1392 109.192 94.5552 109.816C94.9792 110.432 95.1912 111.156 95.1912 111.988V115H85.8672V113.536H87.4512V109H89.0592V110.92C89.4192 110.472 89.7432 110.108 90.0312 109.828C90.3272 109.548 90.6712 109.32 91.0632 109.144C91.4552 108.968 91.9072 108.88 92.4192 108.88ZM92.0472 110.344C91.4792 110.344 90.9232 110.612 90.3792 111.148C89.8432 111.676 89.4032 112.288 89.0592 112.984V113.536H93.5832V112.3C93.5832 111.756 93.4472 111.296 93.1752 110.92C92.9112 110.536 92.5352 110.344 92.0472 110.344ZM106.479 113.536V115H102.243C101.451 115 100.827 114.916 100.371 114.748C99.9149 114.58 99.5749 114.276 99.3509 113.836C99.1349 113.388 99.0269 112.74 99.0269 111.892C99.0269 111.084 99.1309 110.468 99.3389 110.044C99.5469 109.612 99.8829 109.312 100.347 109.144C100.811 108.968 101.463 108.88 102.303 108.88C102.751 108.88 103.287 108.896 103.911 108.928C104.535 108.96 104.975 108.996 105.231 109.036V113.536H106.479ZM100.635 111.892C100.635 112.34 100.691 112.684 100.803 112.924C100.923 113.156 101.103 113.316 101.343 113.404C101.583 113.492 101.911 113.536 102.327 113.536H103.623V110.404C103.223 110.364 102.803 110.344 102.363 110.344C101.923 110.344 101.579 110.388 101.331 110.476C101.091 110.564 100.915 110.72 100.803 110.944C100.691 111.16 100.635 111.476 100.635 111.892ZM100.911 106.384H102.147V107.884H100.911V106.384ZM102.735 106.384H103.971V107.884H102.735V106.384ZM113.044 113.536V115H106.48V113.536H108.172C107.908 113.056 107.776 112.484 107.776 111.82C107.776 111.116 107.924 110.544 108.22 110.104C108.524 109.656 108.896 109.336 109.336 109.144C109.776 108.952 110.212 108.856 110.644 108.856C110.94 108.856 111.28 108.9 111.664 108.988C112.056 109.068 112.396 109.18 112.684 109.324L112.612 110.836C112.364 110.716 112.064 110.6 111.712 110.488C111.368 110.376 111.06 110.32 110.788 110.32C110.42 110.32 110.092 110.44 109.804 110.68C109.524 110.92 109.384 111.324 109.384 111.892C109.384 112.26 109.444 112.584 109.564 112.864C109.692 113.136 109.844 113.36 110.02 113.536H113.044ZM114.366 106.6H115.974V115H114.366V106.6ZM119.775 108.724C120.415 108.724 120.975 108.884 121.455 109.204C121.943 109.516 122.319 109.988 122.583 110.62C122.855 111.252 122.991 112.028 122.991 112.948V115H117.531V113.536H121.383V113.104C121.383 112.064 121.187 111.324 120.795 110.884C120.403 110.436 119.935 110.212 119.391 110.212H118.179L118.059 108.952C118.307 108.896 118.587 108.844 118.899 108.796C119.219 108.748 119.511 108.724 119.775 108.724ZM118.467 106H119.943V107.56H118.467V106ZM124.315 106.6H125.923V115H124.315V106.6Z" fill="white"/>
<g filter="url(#filter0_d)">
<path d="M79.1724 12C75.8015 12 73.0689 14.7326 73.0689 18.1034C73.0689 21.4743 75.8015 24.2069 79.1724 24.2069C82.5432 24.2069 85.2758 21.4743 85.2758 18.1034C85.2758 14.7326 82.5432 12 79.1724 12Z" fill="white"/>
<path d="M75.0356 25.2241C73.9494 25.2241 73.0689 26.1046 73.0689 27.1908V28.2759H85.2758V27.1908C85.2758 26.1046 84.3953 25.2241 83.3091 25.2241H75.0356Z" fill="white"/>
<path d="M51.9666 88.2712C52.4118 86.4906 54.0117 85.2414 55.8472 85.2414H61.8079C63.6434 85.2414 65.2433 86.4906 65.6884 88.2712L67.9827 97.4483H49.6724L51.9666 88.2712Z" fill="white"/>
<path d="M55.2082 99.4211C56.6494 102.484 61.0057 102.484 62.4468 99.4211L62.8965 98.4655H54.7586L55.2082 99.4211Z" fill="white"/>
<path fill-rule="evenodd" clip-rule="evenodd" d="M85.2758 30.3103H73.0689L73.0689 50.6552H52.7241V71H32.3793L32.3793 91.3448H12.0344V103.552H32.3793H44.5862V83.2069H64.931V62.8621L73.0689 62.8621L125.965 62.8621V30.3103H93.4137V50.6552H85.2758L85.2758 30.3103ZM113.759 42.5172V50.6552H105.621V42.5172H113.759Z" fill="white"/>
</g>
<defs>
<filter id="filter0_d" x="0.0344238" y="0" width="137.931" height="115.552" filterUnits="userSpaceOnUse" color-interpolation-filters="sRGB">
<feFlood flood-opacity="0" result="BackgroundImageFix"/>
<feColorMatrix in="SourceAlpha" type="matrix" values="0 0 0 0 0 0 0 0 0 0 0 0 0 0 0 0 0 0 127 0" result="hardAlpha"/>
<feOffset/>
<feGaussianBlur stdDeviation="6"/>
<feComposite in2="hardAlpha" operator="out"/>
<feColorMatrix type="matrix" values="0 0 0 0 0.666667 0 0 0 0 1 0 0 0 0 0.98 0 0 0 0.6 0"/>
<feBlend mode="normal" in2="BackgroundImageFix" result="effect1_dropShadow"/>
<feBlend mode="normal" in="SourceGraphic" in2="effect1_dropShadow" result="shape"/>
</filter>
</defs>
</svg>
