<svg width="16" height="16" viewBox="0 0 16 16" fill="none" xmlns="http://www.w3.org/2000/svg">
<path fill-rule="evenodd" clip-rule="evenodd" d="M8 16C12.4183 16 16 12.4183 16 8C16 3.58171 12.4183 0 8 0C3.58171 0 0 3.58171 0 8C0 12.4183 3.58171 16 8 16ZM11.2 7.37554C11.2695 7.41567 11.3272 7.47338 11.3673 7.54287C11.4074 7.61236 11.4286 7.69119 11.4286 7.77143C11.4286 7.85167 11.4074 7.9305 11.3673 7.99999C11.3272 8.06948 11.2695 8.12719 11.2 8.16731L6.4 10.9385C6.33051 10.9786 6.25168 10.9998 6.17143 10.9998C6.09119 10.9998 6.01236 10.9786 5.94286 10.9385C5.87337 10.8984 5.81566 10.8407 5.77554 10.7712C5.73541 10.7017 5.71429 10.6229 5.71429 10.5426V5.00023C5.71429 4.91998 5.73541 4.84115 5.77554 4.77166C5.81566 4.70217 5.87337 4.64446 5.94286 4.60434C6.01236 4.56422 6.09119 4.5431 6.17143 4.5431C6.25168 4.5431 6.33051 4.56422 6.4 4.60434L11.2 7.37554Z" fill="black"/>
</svg>
