<svg width="15" height="14" viewBox="0 0 15 14" fill="none" xmlns="http://www.w3.org/2000/svg">
<path d="M9.20282 0.0156258C9.26853 0.0155085 9.33361 0.0283425 9.39435 0.0533942C9.45509 0.0784459 9.5103 0.115224 9.55682 0.161626L14.5068 5.11163C14.6006 5.20539 14.6532 5.33254 14.6532 5.46513C14.6532 5.59771 14.6006 5.72486 14.5068 5.81863C14.0268 6.29863 13.4348 6.40663 13.0038 6.40663C12.8268 6.40663 12.6688 6.38863 12.5438 6.36763L9.40982 9.50163C9.49232 9.83404 9.54586 10.173 9.56982 10.5146C9.61582 11.2166 9.53782 12.2016 8.84982 12.8896C8.75606 12.9834 8.6289 13.036 8.49632 13.036C8.36374 13.036 8.23658 12.9834 8.14282 12.8896L5.31382 10.0616L2.13182 13.2436C1.93682 13.4386 0.912821 14.1456 0.717821 13.9506C0.522821 13.7556 1.22982 12.7306 1.42482 12.5366L4.60682 9.35463L1.77882 6.52563C1.68509 6.43186 1.63243 6.30471 1.63243 6.17213C1.63243 6.03954 1.68509 5.91239 1.77882 5.81863C2.46682 5.13063 3.45182 5.05163 4.15382 5.09863C4.49548 5.12257 4.83442 5.1761 5.16682 5.25863L8.30082 2.12563C8.27466 1.97334 8.26128 1.81914 8.26082 1.66463C8.26082 1.23463 8.36882 0.642626 8.84982 0.161626C8.94353 0.0681568 9.07047 0.0156539 9.20282 0.0156258V0.0156258Z" fill="white"/>
</svg>
