<svg width="15" height="14" viewBox="0 0 15 14" fill="none" xmlns="http://www.w3.org/2000/svg">
<mask id="path-1-inside-1" fill="white">
<path d="M9.23377 0.0156258C9.29947 0.0155085 9.36456 0.0283425 9.4253 0.0533942C9.48604 0.0784459 9.54125 0.115224 9.58777 0.161626L14.5378 5.11163C14.6315 5.20539 14.6842 5.33254 14.6842 5.46513C14.6842 5.59771 14.6315 5.72486 14.5378 5.81863C14.0578 6.29863 13.4658 6.40663 13.0348 6.40663C12.8578 6.40663 12.6998 6.38863 12.5748 6.36763L9.44077 9.50163C9.52327 9.83404 9.5768 10.173 9.60077 10.5146C9.64677 11.2166 9.56877 12.2016 8.88077 12.8896C8.787 12.9834 8.65985 13.036 8.52727 13.036C8.39468 13.036 8.26753 12.9834 8.17377 12.8896L5.34477 10.0616L2.16277 13.2436C1.96777 13.4386 0.943766 14.1456 0.748766 13.9506C0.553766 13.7556 1.26077 12.7306 1.45577 12.5366L4.63777 9.35463L1.80977 6.52563C1.71603 6.43186 1.66337 6.30471 1.66337 6.17213C1.66337 6.03954 1.71603 5.91239 1.80977 5.81863C2.49777 5.13063 3.48277 5.05163 4.18477 5.09863C4.52642 5.12257 4.86536 5.1761 5.19777 5.25863L8.33177 2.12563C8.30561 1.97334 8.29223 1.81914 8.29177 1.66463C8.29177 1.23463 8.39977 0.642626 8.88077 0.161626C8.97447 0.0681568 9.10141 0.0156539 9.23377 0.0156258Z"/>
</mask>
<path d="M9.23377 0.0156258C9.29947 0.0155085 9.36456 0.0283425 9.4253 0.0533942C9.48604 0.0784459 9.54125 0.115224 9.58777 0.161626L14.5378 5.11163C14.6315 5.20539 14.6842 5.33254 14.6842 5.46513C14.6842 5.59771 14.6315 5.72486 14.5378 5.81863C14.0578 6.29863 13.4658 6.40663 13.0348 6.40663C12.8578 6.40663 12.6998 6.38863 12.5748 6.36763L9.44077 9.50163C9.52327 9.83404 9.5768 10.173 9.60077 10.5146C9.64677 11.2166 9.56877 12.2016 8.88077 12.8896C8.787 12.9834 8.65985 13.036 8.52727 13.036C8.39468 13.036 8.26753 12.9834 8.17377 12.8896L5.34477 10.0616L2.16277 13.2436C1.96777 13.4386 0.943766 14.1456 0.748766 13.9506C0.553766 13.7556 1.26077 12.7306 1.45577 12.5366L4.63777 9.35463L1.80977 6.52563C1.71603 6.43186 1.66337 6.30471 1.66337 6.17213C1.66337 6.03954 1.71603 5.91239 1.80977 5.81863C2.49777 5.13063 3.48277 5.05163 4.18477 5.09863C4.52642 5.12257 4.86536 5.1761 5.19777 5.25863L8.33177 2.12563C8.30561 1.97334 8.29223 1.81914 8.29177 1.66463C8.29177 1.23463 8.39977 0.642626 8.88077 0.161626C8.97447 0.0681568 9.10141 0.0156539 9.23377 0.0156258Z" stroke="white" stroke-width="2" mask="url(#path-1-inside-1)"/>
</svg>
