<svg width="16" height="16" viewBox="0 0 16 16" fill="none" xmlns="http://www.w3.org/2000/svg">
<path d="M9.6389 0C9.35689 0.000588173 9.08496 0.113949 8.88526 0.313149C8.24437 0.954034 8.09821 1.74732 8.09821 2.29642V2.29851C8.0985 2.39491 8.11503 2.49064 8.12326 2.5866L5.13791 5.56987C4.85352 5.51328 4.56994 5.45444 4.28198 5.43417H4.27989C3.45646 5.37904 2.22922 5.45773 1.32794 6.359C0.915144 6.77193 0.915144 7.45754 1.32794 7.87047L3.973 10.5176L0.947987 13.5405C0.739703 13.7483 0.539808 14.043 0.330041 14.4048C0.224869 14.5862 0.130198 14.7693 0.0649083 14.9664C0.0322636 15.065 0.00319106 15.1661 0.000190923 15.3004C-0.00279874 15.4343 0.0279188 15.6401 0.192255 15.8057C0.358097 15.9724 0.56511 16.0028 0.699556 15.9998C0.834002 15.9968 0.935082 15.9677 1.03358 15.9351C1.23058 15.8698 1.41381 15.7751 1.59516 15.67C1.95787 15.4597 2.25252 15.2589 2.45945 15.052L5.48238 12.0291L8.12953 14.6741C8.54245 15.0869 9.22807 15.0869 9.64099 14.6741C10.5424 13.7727 10.6197 12.5444 10.5658 11.7222V11.7201C10.5455 11.4304 10.4865 11.1456 10.4301 10.862L13.4155 7.87668C13.5121 7.88554 13.5917 7.89964 13.7036 7.89964C14.2535 7.89964 15.0468 7.75476 15.6868 7.11468C16.0996 6.70176 16.0996 6.01614 15.6868 5.60322L10.3967 0.313149C10.1965 0.113427 9.92374 2.50011e-05 9.64099 0H9.6389ZM9.64099 1.06888L14.9311 6.359C14.5451 6.74505 14.075 6.83081 13.7036 6.83081C13.5506 6.83081 13.4109 6.81593 13.3006 6.79741L13.0293 6.75148L9.27147 10.5093L9.34246 10.8015C9.42289 11.1272 9.47557 11.4589 9.49903 11.7932C9.54319 12.4714 9.45405 13.3475 8.88526 13.9163L5.48447 10.5176H5.48238L2.08367 7.11474C2.65264 6.54577 3.5298 6.45592 4.20682 6.50096C4.54108 6.52449 4.87122 6.5765 5.19637 6.65754L5.49073 6.73061L9.2506 2.97282L9.20258 2.69934C9.17967 2.56593 9.1675 2.43179 9.16709 2.29642C9.16709 1.92629 9.25361 1.45626 9.64099 1.06888Z" fill="black"/>
</svg>
