<svg width="16" height="16" viewBox="0 0 16 16" fill="none" xmlns="http://www.w3.org/2000/svg">
<path fill-rule="evenodd" clip-rule="evenodd" d="M0 8C0 3.58154 3.58154 0 8 0C12.4185 0 16 3.58154 16 8C16 12.4185 12.4185 16 8 16C3.58154 16 0 12.4185 0 8ZM3.87508 13.0825C5.04039 14.0308 6.49754 14.5476 8 14.5452C9.52909 14.5473 11.0103 14.0119 12.1846 13.0326C11.7136 12.3752 11.0925 11.8396 10.373 11.4703C9.65342 11.1011 8.85615 10.9088 8.04738 10.9095C7.2284 10.9089 6.42136 11.106 5.69494 11.4842C4.96851 11.8624 4.34419 12.4105 3.87508 13.0818V13.0825ZM10.0572 7.87508C10.3274 7.60492 10.5416 7.2842 10.6878 6.93123C10.834 6.57827 10.9092 6.19996 10.9092 5.81792C10.9092 5.43588 10.8339 5.05759 10.6877 4.70464C10.5414 4.35169 10.3271 4.031 10.057 3.76088C9.78681 3.49075 9.46608 3.27649 9.11311 3.13032C8.76014 2.98415 8.38184 2.90893 7.9998 2.90896C7.61776 2.909 7.23946 2.98428 6.88652 3.13051C6.53357 3.27674 6.21289 3.49106 5.94277 3.76123C5.39726 4.30685 5.09083 5.04682 5.0909 5.81836C5.09097 6.5899 5.39752 7.32982 5.94312 7.87534C6.48873 8.42086 7.22869 8.7273 8.00023 8.72725C8.77177 8.72721 9.5117 8.42067 10.0572 7.87508Z" fill="black"/>
</svg>
