<svg width="16" height="16" viewBox="0 0 16 16" fill="none" xmlns="http://www.w3.org/2000/svg">
<path fill-rule="evenodd" clip-rule="evenodd" d="M8 0C3.58154 0 0 3.58154 0 8C0 12.4185 3.58154 16 8 16C12.4185 16 16 12.4185 16 8C16 3.58154 12.4185 0 8 0ZM7.65024 1.46154C8.89847 1.39468 10.1397 1.68663 11.2273 2.30286C12.3149 2.9191 13.2033 3.83385 13.7874 4.93898C14.3716 6.0441 14.6271 7.29338 14.5238 8.53913C14.4205 9.78487 13.9626 10.975 13.2043 11.9688C12.5927 11.1848 11.8102 10.5508 10.9164 10.1151C10.0226 9.67935 9.0412 9.45336 8.04688 9.45433C7.03927 9.4535 6.04511 9.68567 5.1421 10.1327C4.23908 10.5797 3.45165 11.2295 2.84135 12.0313C1.97242 10.9199 1.45433 9.52 1.45433 8H1.45553C1.455 6.32437 2.09709 4.71234 3.24954 3.49594C4.40198 2.27955 5.97702 1.55142 7.65024 1.46154ZM7.78245 2.91707C7.05081 2.97201 6.36696 3.30139 5.86791 3.83922C5.36886 4.37706 5.09148 5.08361 5.09135 5.81731C5.10175 6.58188 5.41278 7.3116 5.95712 7.84859C6.50147 8.38558 7.23536 8.68665 8 8.68665C8.76464 8.68665 9.49853 8.38558 10.0429 7.84859C10.5872 7.3116 10.8982 6.58188 10.9087 5.81731C10.9086 5.41704 10.8259 5.0211 10.6658 4.65425C10.5057 4.2874 10.2716 3.95755 9.97814 3.68532C9.6847 3.41309 9.33824 3.20435 8.96043 3.07216C8.58262 2.93997 8.1816 2.88717 7.78245 2.91707ZM7.84736 4.37139C8.05005 4.35007 8.25495 4.37158 8.4488 4.43451C8.64265 4.49745 8.82111 4.60042 8.97261 4.73674C9.12412 4.87306 9.24529 5.03969 9.32828 5.22584C9.41126 5.41199 9.45421 5.6135 9.45433 5.81731C9.45911 6.01131 9.42503 6.20431 9.3541 6.38495C9.28316 6.56558 9.17681 6.73019 9.04128 6.8691C8.90576 7.008 8.74382 7.11839 8.56499 7.19376C8.38616 7.26913 8.19406 7.30795 8 7.30795C7.80594 7.30795 7.61384 7.26913 7.43501 7.19376C7.25618 7.11839 7.09424 7.008 6.95872 6.8691C6.8232 6.73019 6.71684 6.56558 6.6459 6.38495C6.57497 6.20431 6.54089 6.01131 6.54567 5.81731C6.54587 5.45812 6.67893 5.1117 6.91925 4.84475C7.15958 4.5778 7.49016 4.40919 7.84736 4.37139ZM8.04688 10.9087C8.85587 10.9078 9.65338 11.1001 10.3731 11.4695C11.0929 11.8389 11.7141 12.3747 12.1851 13.0325C11.0107 14.0121 9.52933 14.5477 8 14.5457C6.49752 14.548 5.04034 14.0313 3.875 13.0829C4.34385 12.4113 4.96801 11.8629 5.69437 11.4843C6.42073 11.1058 7.22779 10.9083 8.04688 10.9087Z" fill="black"/>
</svg>
