<svg width="32" height="33" viewBox="0 0 32 33" fill="none" xmlns="http://www.w3.org/2000/svg">
<path d="M16 30.5339C12.287 30.5339 8.72601 29.0589 6.1005 26.4334C3.475 23.8079 2 20.247 2 16.5339C2 12.8209 3.475 9.25995 6.1005 6.63444C8.72601 4.00893 12.287 2.53394 16 2.53394C19.713 2.53394 23.274 4.00893 25.8995 6.63444C28.525 9.25995 30 12.8209 30 16.5339C30 20.247 28.525 23.8079 25.8995 26.4334C23.274 29.0589 19.713 30.5339 16 30.5339ZM16 32.5339C20.2435 32.5339 24.3131 30.8482 27.3137 27.8476C30.3143 24.8471 32 20.7774 32 16.5339C32 12.2905 30.3143 8.22081 27.3137 5.22023C24.3131 2.21965 20.2435 0.533936 16 0.533936C11.7565 0.533936 7.68687 2.21965 4.68629 5.22023C1.68571 8.22081 0 12.2905 0 16.5339C0 20.7774 1.68571 24.8471 4.68629 27.8476C7.68687 30.8482 11.7565 32.5339 16 32.5339Z" fill="white"/>
<path d="M22 16.5339C22 18.1252 21.3679 19.6514 20.2426 20.7766C19.1174 21.9018 17.5913 22.5339 16 22.5339C14.4087 22.5339 12.8826 21.9018 11.7574 20.7766C10.6321 19.6514 10 18.1252 10 16.5339C10 14.9426 10.6321 13.4165 11.7574 12.2913C12.8826 11.1661 14.4087 10.5339 16 10.5339C17.5913 10.5339 19.1174 11.1661 20.2426 12.2913C21.3679 13.4165 22 14.9426 22 16.5339Z" fill="#F15E54"/>
</svg>
