<svg width="32" height="33" viewBox="0 0 32 33" fill="none" xmlns="http://www.w3.org/2000/svg">
<path d="M16 30.5339C12.287 30.5339 8.72601 29.0589 6.1005 26.4334C3.475 23.8079 2 20.247 2 16.5339C2 12.8209 3.475 9.25995 6.1005 6.63444C8.72601 4.00893 12.287 2.53394 16 2.53394C19.713 2.53394 23.274 4.00893 25.8995 6.63444C28.525 9.25995 30 12.8209 30 16.5339C30 20.247 28.525 23.8079 25.8995 26.4334C23.274 29.0589 19.713 30.5339 16 30.5339ZM16 32.5339C20.2435 32.5339 24.3131 30.8482 27.3137 27.8476C30.3143 24.8471 32 20.7774 32 16.5339C32 12.2905 30.3143 8.22081 27.3137 5.22023C24.3131 2.21965 20.2435 0.533936 16 0.533936C11.7565 0.533936 7.68687 2.21965 4.68629 5.22023C1.68571 8.22081 0 12.2905 0 16.5339C0 20.7774 1.68571 24.8471 4.68629 27.8476C7.68687 30.8482 11.7565 32.5339 16 32.5339Z" fill="white"/>
<path d="M12 13.25C12 12.5596 12.6716 12 13.5 12C14.3284 12 15 12.5596 15 13.25V20.75C15 21.4404 14.3284 22 13.5 22C12.6716 22 12 21.4404 12 20.75V13.25Z" fill="#6D7D89"/>
<path d="M17 13.25C17 12.5596 17.6716 12 18.5 12C19.3284 12 20 12.5596 20 13.25V20.75C20 21.4404 19.3284 22 18.5 22C17.6716 22 17 21.4404 17 20.75V13.25Z" fill="#6D7D89"/>
</svg>
