<svg width="16" height="14" viewBox="0 0 16 14" fill="none" xmlns="http://www.w3.org/2000/svg">
<g clip-path="url(#clip0)">
<path fill-rule="evenodd" clip-rule="evenodd" d="M10.4121 14.2446C10.9797 14.2445 11.5377 14.0974 12.0316 13.8177C12.5255 13.538 12.9385 13.1351 13.2305 12.6483L15.5315 8.81354C15.8381 8.30266 16 7.71808 16 7.1223C16 6.52651 15.8381 5.94193 15.5315 5.43105L13.2305 1.59625C12.9385 1.10948 12.5255 0.70662 12.0316 0.42689C11.5377 0.14715 10.9797 9e-05 10.4121 0H5.58788C5.02026 9e-05 4.46233 0.14715 3.96842 0.42689C3.47451 0.70662 3.06145 1.10948 2.76947 1.59625L0.468452 5.43105C0.161922 5.94193 0 6.52651 0 7.1223C0 7.71808 0.161922 8.30266 0.468452 8.81354L2.76947 12.6483C3.06145 13.1351 3.47451 13.538 3.96842 13.8177C4.46233 14.0974 5.02026 14.2445 5.58788 14.2446H10.4121ZM8.00066 9.2172C6.8324 9.2172 5.864 8.29022 5.864 7.12197C5.864 5.95371 6.8324 5.02739 8.00066 5.02739C9.16892 5.02739 10.1373 5.95371 10.1373 7.12197C10.1373 8.29088 9.16892 9.2172 8.00066 9.2172Z" fill="black"/>
</g>
<defs>
<clipPath id="clip0">
<rect width="16" height="14" fill="white"/>
</clipPath>
</defs>
</svg>
