<svg width="26" height="22" viewBox="0 0 26 22" fill="none" xmlns="http://www.w3.org/2000/svg">
<path fill-rule="evenodd" clip-rule="evenodd" d="M16.6741 21.8334C18.4304 21.8334 20.0579 20.9119 20.9615 19.4059L24.4615 13.5726C25.4116 11.9891 25.4116 10.011 24.4615 8.4276L20.9615 2.59427C20.0579 1.08824 18.4304 0.166748 16.6741 0.166748H9.33596C7.57964 0.166748 5.95211 1.08824 5.04849 2.59427L1.54849 8.4276C0.598445 10.011 0.598445 11.9891 1.54849 13.5726L5.04849 19.4059C5.95211 20.9119 7.57964 21.8334 9.33596 21.8334H16.6741ZM15.3031 13.2531C14.6936 13.8507 13.867 14.1864 13.005 14.1864C12.1431 14.1864 11.3164 13.8507 10.7069 13.2531C10.0974 12.6556 9.755 11.8451 9.755 11.0001C9.755 10.155 10.0974 9.34459 10.7069 8.74705C11.3164 8.1495 12.1431 7.81381 13.005 7.81381C13.867 7.81381 14.6936 8.1495 15.3031 8.74705C15.9126 9.34459 16.255 10.155 16.255 11.0001C16.255 11.8451 15.9126 12.6556 15.3031 13.2531Z" fill="white"/>
</svg>
