<svg width="26" height="22" viewBox="0 0 26 22" fill="none" xmlns="http://www.w3.org/2000/svg">
<path d="M23.604 13.0581L20.104 18.8914C19.3811 20.0962 18.0791 20.8334 16.6741 20.8334H9.33596C7.93091 20.8334 6.62888 20.0962 5.90598 18.8914L2.40599 13.0581C1.64595 11.7913 1.64595 10.2088 2.40599 8.9421L5.90599 3.10876C6.62888 1.90394 7.9309 1.16675 9.33596 1.16675H16.6741C18.0791 1.16675 19.3811 1.90394 20.104 3.10877L23.604 8.9421C24.3641 10.2088 24.3641 11.7913 23.604 13.0581ZM13.005 15.1864C14.1259 15.1864 15.2047 14.75 16.0032 13.9672C16.8023 13.1837 17.255 12.1168 17.255 11.0001C17.255 9.88335 16.8023 8.81646 16.0032 8.03297C15.2047 7.25015 14.1259 6.81381 13.005 6.81381C11.8842 6.81381 10.8053 7.25015 10.0068 8.03297C9.20768 8.81646 8.755 9.88335 8.755 11.0001C8.755 12.1168 9.20768 13.1837 10.0068 13.9672C10.8053 14.75 11.8842 15.1864 13.005 15.1864Z" stroke="white" stroke-width="2" stroke-linejoin="round"/>
</svg>
