<svg width="30" height="26" viewBox="0 0 30 26" fill="none" xmlns="http://www.w3.org/2000/svg">
<path fill-rule="evenodd" clip-rule="evenodd" d="M21.6121 23.8333L28.1121 13L21.6121 2.16667H8.61206L2.11206 13L8.61206 23.8333H21.6121ZM17.4102 15.253C16.8007 15.8506 15.974 16.1863 15.1121 16.1863C14.2501 16.1863 13.4235 15.8506 12.814 15.253C12.2045 14.6555 11.8621 13.8451 11.8621 13C11.8621 12.155 12.2045 11.3445 12.814 10.747C13.4235 10.1494 14.2501 9.81373 15.1121 9.81373C15.974 9.81373 16.8007 10.1494 17.4102 10.747C18.0196 11.3445 18.3621 12.155 18.3621 13C18.3621 13.8451 18.0196 14.6555 17.4102 15.253Z" stroke="white" stroke-width="3" stroke-linejoin="round"/>
</svg>
