<svg width="16" height="14" viewBox="0 0 16 14" fill="none" xmlns="http://www.w3.org/2000/svg">
<g clip-path="url(#clip0)">
<path d="M5.58821 0C4.43451 0 3.36196 0.596397 2.76839 1.56874L0.467331 5.33724H0.468613C-0.155364 6.35933 -0.156616 7.63931 0.467331 8.66151L2.76839 12.4313C3.36196 13.4036 4.4345 14 5.58821 14H10.4125C11.5662 14 12.6374 13.4036 13.231 12.4313L15.5321 8.66151C16.156 7.63933 16.156 6.35935 15.5321 5.33724L15.5295 5.33343L15.5282 5.33091C14.8166 4.19878 13.7626 2.45918 13.2349 1.57379L13.2323 1.57126L13.231 1.56874C12.6375 0.596378 11.5662 0 10.4125 0H5.58821ZM5.58821 1.29235H10.4125C11.1057 1.29235 11.7452 1.64757 12.1023 2.23132C12.6362 3.1269 13.6838 4.85594 14.4059 6.00488C14.7798 6.6194 14.7796 7.38339 14.4046 7.99767L12.1036 11.7662C11.7466 12.3509 11.1063 12.7076 10.4125 12.7076H5.58821C4.89443 12.7076 4.25403 12.3509 3.89709 11.7662L1.59603 7.99767C1.22059 7.38259 1.22065 6.61722 1.59603 6.00235L3.89709 2.23258C4.25403 1.64787 4.89443 1.29235 5.58821 1.29235ZM7.9997 3.64861C6.13679 3.64861 4.54812 5.12145 4.54811 6.99937C4.54811 8.87726 6.13678 10.3514 7.9997 10.3514C9.86267 10.3514 11.4513 8.87726 11.4513 6.99937C11.4513 5.12146 9.86266 3.64861 7.9997 3.64861ZM7.9997 4.94096C9.16598 4.94096 10.1364 5.83335 10.1364 6.99937C10.1364 8.16535 9.16597 9.05908 7.9997 9.05908C6.83351 9.05908 5.863 8.16534 5.863 6.99937C5.86301 5.83336 6.8335 4.94096 7.9997 4.94096Z" fill="black"/>
</g>
<defs>
<clipPath id="clip0">
<rect width="16" height="14" fill="white"/>
</clipPath>
</defs>
</svg>
