<svg width="32" height="32" viewBox="0 0 32 32" fill="none" xmlns="http://www.w3.org/2000/svg">
<path d="M16 7.03662C13.8402 7.07931 11.7853 7.98976 10.2858 9.56833C8.78637 11.1469 7.96475 13.2647 8.00116 15.4574V19.2171C8.00116 19.8595 8.18881 20.4875 8.54038 21.0216C8.89195 21.5558 9.39165 21.9721 9.97629 22.2179C10.5609 22.4638 11.2042 22.5281 11.8249 22.4028C12.4455 22.2774 13.0156 21.9681 13.4631 21.5138C13.9106 21.0596 14.2153 20.4808 14.3388 19.8507C14.4622 19.2207 14.3988 18.5676 14.1567 17.9741C13.9145 17.3806 13.5044 16.8733 12.9783 16.5164C12.4521 16.1594 11.8335 15.969 11.2007 15.969C10.6368 15.9714 10.0841 16.1285 9.60093 16.4237V15.4574C9.56443 13.6954 10.2175 11.9906 11.417 10.7166C12.6164 9.44259 14.2645 8.70328 16 8.66068C17.7355 8.70328 19.3836 9.44259 20.583 10.7166C21.7825 11.9906 22.4356 13.6954 22.3991 15.4574V16.4237C21.9159 16.1285 21.3632 15.9714 20.7993 15.969C20.1665 15.969 19.5479 16.1594 19.0217 16.5164C18.4956 16.8733 18.0855 17.3806 17.8433 17.9741C17.6012 18.5676 17.5378 19.2207 17.6612 19.8507C17.7847 20.4808 18.0894 21.0596 18.5369 21.5138C18.9844 21.9681 19.5545 22.2774 20.1751 22.4028C20.7958 22.5281 21.4391 22.4638 22.0237 22.2179C22.6084 21.9721 23.1081 21.5558 23.4596 21.0216C23.8112 20.4875 23.9988 19.8595 23.9988 19.2171V15.4574C24.0353 13.2647 23.2136 11.1469 21.7142 9.56833C20.2147 7.98976 18.1598 7.07931 16 7.03662V7.03662Z" fill="white"/>
<circle cx="16" cy="16" r="15" stroke="white" stroke-width="2"/>
</svg>
