<svg width="20" height="19" viewBox="0 0 20 19" fill="none" xmlns="http://www.w3.org/2000/svg">
<path d="M12.1822 16.1276L9.5752 13.5306C8.86818 13.4642 8.18678 13.2325 7.59246 12.8535C6.87983 12.399 6.3244 11.7529 5.99641 10.9971C5.80857 10.5643 5.70016 10.1065 5.67322 9.64368L2.04664 6.03106C1.19298 6.9617 0.511766 8.03234 0.0397175 9.19784C-0.0132392 9.33766 -0.0132392 9.49076 0.0397175 9.63057C0.823847 11.5666 2.18512 13.2409 3.9553 14.4465C5.72547 15.6521 7.82695 16.3362 10 16.4142C10.7391 16.3877 11.4699 16.291 12.1822 16.1276Z" fill="white"/>
<path fill-rule="evenodd" clip-rule="evenodd" d="M0.122693 1.29152L1.41421 0L5.10826 3.69405C6.60852 2.91642 8.28189 2.47588 10 2.41421C12.173 2.49221 14.2745 3.17629 16.0447 4.3819C17.8149 5.58751 19.1762 7.2618 19.9603 9.19784C20.0132 9.33766 20.0132 9.49076 19.9603 9.63057C19.1762 11.5666 17.8149 13.2409 16.0447 14.4465C16.0082 14.4714 15.9715 14.496 15.9347 14.5205L19.0919 17.6777L17.8344 18.9351L0.122693 1.29152ZM14.3335 9.41421C14.3319 10.3507 13.9983 11.254 13.395 11.9808L12.2279 10.8137C12.5053 10.4121 12.6667 9.93116 12.6667 9.41421C12.6667 8.00839 11.4728 6.86875 9.99999 6.86875C9.5028 6.86875 9.0374 6.99862 8.63898 7.22476L7.47012 6.05591C7.97069 5.71234 8.54461 5.47313 9.15458 5.35732C9.99519 5.19772 10.8665 5.27963 11.6583 5.5927C12.4502 5.90578 13.127 6.43594 13.6031 7.11617C14.0793 7.79639 14.3335 8.59611 14.3335 9.41421Z" fill="white"/>
</svg>
