<svg width="21" height="20" viewBox="0 0 21 20" fill="none" xmlns="http://www.w3.org/2000/svg">
<g clip-path="url(#clip0)">
<path d="M10.1071 12.5C11.4878 12.5 12.6071 11.3807 12.6071 10C12.6071 8.61929 11.4878 7.5 10.1071 7.5C8.72634 7.5 7.60706 8.61929 7.60706 10C7.60706 11.3807 8.72634 12.5 10.1071 12.5Z" fill="white"/>
<path d="M19.4445 9.7875C18.7094 7.88603 17.4333 6.24164 15.7738 5.05755C14.1143 3.87347 12.1442 3.20161 10.107 3.125C8.06986 3.20161 6.09978 3.87347 4.44029 5.05755C2.78079 6.24164 1.50463 7.88603 0.769534 9.7875C0.719888 9.92482 0.719888 10.0752 0.769534 10.2125C1.50463 12.114 2.78079 13.7584 4.44029 14.9424C6.09978 16.1265 8.06986 16.7984 10.107 16.875C12.1442 16.7984 14.1143 16.1265 15.7738 14.9424C17.4333 13.7584 18.7094 12.114 19.4445 10.2125C19.4942 10.0752 19.4942 9.92482 19.4445 9.7875V9.7875ZM10.107 14.0625C9.30355 14.0625 8.5181 13.8242 7.85003 13.3778C7.18196 12.9315 6.66125 12.297 6.35377 11.5547C6.04629 10.8123 5.96584 9.99549 6.12259 9.20745C6.27935 8.4194 6.66626 7.69553 7.23441 7.12738C7.80256 6.55923 8.52643 6.17231 9.31448 6.01556C10.1025 5.85881 10.9194 5.93926 11.6617 6.24674C12.404 6.55422 13.0385 7.07492 13.4849 7.743C13.9313 8.41107 14.1695 9.19651 14.1695 10C14.1679 11.0769 13.7393 12.1093 12.9778 12.8708C12.2163 13.6323 11.184 14.0608 10.107 14.0625V14.0625Z" fill="white"/>
</g>
<defs>
<clipPath id="clip0">
<rect width="20" height="20" fill="white" transform="translate(0.107056)"/>
</clipPath>
</defs>
</svg>
