<svg width="16" height="16" viewBox="0 0 16 16" fill="none" xmlns="http://www.w3.org/2000/svg">
<g clip-path="url(#clip0)">
<path d="M1.13036 0L0.0974908 1.09087L14.2671 16L15.2734 14.9372L12.7482 12.2702C14.1918 11.2674 15.3145 9.82686 15.9687 8.1378C16.0112 8.0198 16.0112 7.88943 15.9687 7.77143C15.3276 6.11842 14.2375 4.70291 12.8357 3.70335C11.4188 2.68432 9.73801 2.10572 7.99951 2.03981C6.63511 2.08997 5.29823 2.45916 4.08522 3.12078L1.13036 0ZM7.99951 4.45921C8.45368 4.45964 8.90373 4.55034 9.32615 4.72656C9.95289 4.98498 10.494 5.43199 10.8825 6.01217C11.2633 6.58675 11.4669 7.26343 11.4669 7.95462C11.4634 8.7479 11.1975 9.51494 10.7153 10.1232L9.78242 9.13791C10.004 8.79823 10.134 8.39147 10.134 7.95462C10.134 6.76659 9.17797 5.80423 7.99951 5.80423C7.60188 5.80423 7.2288 5.91363 6.91038 6.10459L5.97595 5.11604C6.38154 4.82341 6.84018 4.62279 7.32291 4.52687C7.54593 4.48196 7.77246 4.4593 7.99951 4.45921ZM1.63664 5.09458C0.954545 5.87841 0.411021 6.78503 0.031862 7.77143C-0.0106207 7.88943 -0.0106207 8.0198 0.031862 8.1378C0.672272 9.7912 1.76188 11.2073 3.16329 12.2075C4.59524 13.2307 6.2716 13.8062 7.99951 13.8678C8.59154 13.8458 9.17529 13.7645 9.74492 13.6268L7.65886 11.4319C7.09467 11.3765 6.55104 11.1802 6.07283 10.8592C5.50889 10.4826 5.06433 9.93666 4.7962 9.29139C4.64732 8.92911 4.56005 8.54197 4.53837 8.14771L1.63664 5.09458Z" fill="black"/>
</g>
<defs>
<clipPath id="clip0">
<rect width="16" height="16" fill="white"/>
</clipPath>
</defs>
</svg>
