<svg width="16" height="16" viewBox="0 0 16 16" fill="none" xmlns="http://www.w3.org/2000/svg">
<path d="M7.99981 10.0648C9.17821 10.0648 10.1326 9.10161 10.1326 7.91449C10.1326 6.72653 9.17821 5.76416 7.99981 5.76416C6.82141 5.76416 5.86621 6.72738 5.86621 7.91449C5.86621 9.10246 6.82141 10.0648 7.99981 10.0648Z" fill="black"/>
<path d="M15.9676 7.73196C15.327 6.07869 14.2372 4.66278 12.8356 3.66281C11.404 2.63871 9.7277 2.06233 7.99962 2C6.27154 2.06233 4.59523 2.63871 3.16362 3.66281C1.76206 4.66278 0.672248 6.07869 0.0316184 7.73196C-0.0105395 7.84956 -0.0105395 7.97937 0.0316184 8.09697C0.672248 9.75024 1.76206 11.1661 3.16362 12.1661C4.59523 13.1902 6.27154 13.7666 7.99962 13.8289C9.7277 13.7666 11.404 13.1902 12.8356 12.1661C14.2372 11.1661 15.327 9.75024 15.9676 8.09697C16.0098 7.97937 16.0098 7.84956 15.9676 7.73196ZM7.99962 11.4091C7.31752 11.4103 6.64924 11.206 6.07322 10.8202C5.50915 10.4435 5.06453 9.8974 4.79642 9.25198C4.5345 8.6166 4.46573 7.91102 4.59962 7.23261C4.73322 6.55498 5.06362 5.93143 5.54842 5.44307C6.04059 4.95034 6.65702 4.61822 7.32362 4.48661C7.99552 4.35198 8.68979 4.42112 9.32602 4.68601C9.95279 4.94481 10.4938 5.39225 10.882 5.97283C11.2628 6.54738 11.466 7.22332 11.466 7.91447C11.4636 8.3773 11.3723 8.8348 11.1977 9.25931C11.0231 9.68381 10.7687 10.0665 10.45 10.3842C9.78757 11.0445 8.91053 11.4114 7.99962 11.4091Z" fill="black"/>
</svg>
